<svg xmlns="http://www.w3.org/2000/svg" width="960" height="960" style="shape-rendering:geometricPrecision;text-rendering:geometricPrecision;image-rendering:optimizeQuality;fill-rule:evenodd;clip-rule:evenodd"><path style="opacity:1" fill="#efe6c5" d="M-.5-.5h960v960h-223c-.3-5.7-1.8-11-4.5-16-5.4-8.9-9.8-18.2-13-28a39.9 39.9 0 0 0-6-9c-1.7-7.5-5-14.2-10-20-6.7-15-15.3-28.6-26-41a376.9 376.9 0 0 0-41-51 15 15 0 0 1-1-10c.7-4.8 2.2-9.3 4.5-13.5 7.2-5.1 15-9.5 23-13a530 530 0 0 1 32-23c13.9-13.2 27-27 39.5-41.5a52.2 52.2 0 0 1 13-17 24 24 0 0 0 5-11l11-16c3.3-8.5 7.3-16.5 12-24 5.5-12.4 10-25.3 13.5-38.5-1-2.1-1.7-4-2-5.5a10.3 10.3 0 0 0-3 4c1-6 2.8-11.6 5-17V583l.5 1.5c6.2-15 9.5-30.8 10-47 1.8-2.7 3-5.7 3.5-9a20 20 0 0 0 8 2.5c8.4 6.2 18 9.4 28.5 9.5a55.7 55.7 0 0 0 48-31 168 168 0 0 0 4.5-27.5c0-9.3-1.7-18-5.5-26.5-3.9-6.4-8.2-12.4-13-18a62 62 0 0 0-37.5-17 215 215 0 0 1-18 3.5 90 90 0 0 1-12 5.5 6.4 6.4 0 0 1-4.5-4c-1-9-1.6-18-2-27-5-16.8-9.4-33.8-13-51-1-4-2.6-7.7-5-11l-3-12c-10.2-23-20.5-46-31-69-4.4-6-8.4-12.4-12-19a324 324 0 0 0-15-19 6.5 6.5 0 0 1 0-5c4.4-12.4 7.6-25 9.5-38-1.6-7-6-10.4-13.5-10-5.6.3-11.1 1.2-16.5 2.5 1.6.2 2.9.7 4 1.5-10.3 2-20.7 3.2-31 4a19 19 0 0 0-3-5h3a17.4 17.4 0 0 0-12-12.5l-16-14c-8.3-4.1-16.3-8.8-24-14-6.3-2.6-12.6-5-19-7a107 107 0 0 0-58-16c-7.5-2.5-15.1-4.2-23-5-3.8-4.4-7-9.2-9.5-14.5-5.4-4.3-11-8.5-16.5-12.5a67.8 67.8 0 0 0-34-4A96.9 96.9 0 0 0 441 83.5c-1.9 4-3.5 8-5 12l-2.5 2.5c-20.6 2.8-41 6.8-61 12a340.3 340.3 0 0 0-54 27l-35 28c-4.4 1-8.4.4-12-2-4.6-.5-9-1.3-13.5-2.5-7-2.7-12.7-1-17 5-.7 3-.7 6 0 9 2.7 4.1 5 8.4 7 13 .5 4.5 2 8.7 4.5 12.5-1 .7-1.1 1.6-.5 2.5 1-.8 2.2-1.2 3.5-1v-7c1 2.4 1.3 5.1 1 8l-4 3c-.3-1.7-1.3-2.2-3-1.5a25.7 25.7 0 0 0-7.5 9.5c-3 2-5.6 4.3-8 7-4.6 7.6-9.6 15-15 22a59.3 59.3 0 0 0-6.5 13 48.3 48.3 0 0 0-10.5 22c-6.3 11.2-12 22.5-17 34-3.8 8.8-7.1 17.8-10 27-.3 5.5-2 10.5-5 15-2.7 15.6-6 31-10 46l-1 19c-2.3 2.2-2.8 4.7-1.5 7.5-1.7.7-3.3.7-5 0a52 52 0 0 0-50-10c-29 15.8-41.5 40.3-37.5 73.5 3.2 6.4 5.9 13 8 20a51 51 0 0 0 38.5 22.5c6.7.6 13.4.2 20-1 4-2.4 8.4-4 13-5 3.1-1.9 5.8-4.2 8-7 1-.5 2-.6 3-.5v-3h6v-9c1 .1 1.8.8 2 2-.7 9.4-.2 18.7 1.5 28 2.1 14.6 5.3 29 9.5 43-.4-2.8-2.1-4-5-4 1 9.6 3.1 19 6.5 28a383 383 0 0 0 18 40c9 13 17 26.7 24 41 4.6 6.6 9.9 12.6 16 18 .9 5.2 2.4 10.2 4.5 15a3 3 0 0 0 3 1v-5h2c5 4.6 10 9.4 15 14.5 5.4 1 9.4 4 12 9l18 14a34446 34446 0 0 1 32 20 153 153 0 0 0 18 8 18.7 18.7 0 0 1-.5 17.5 30 30 0 0 0-7 6 216 216 0 0 1-16 19c-7 10.9-14.6 21.2-23 31a1310 1310 0 0 0-24.5 41 60 60 0 0 0-4.5 13 428 428 0 0 0-19 34 85.8 85.8 0 0 0-4.5 19H-.5V-.5Z"/><path style="opacity:1" fill="#fbf7df" d="M669.5 167.5a242.4 242.4 0 0 0-103-55.5c-7.3-1.3-14.6-2.1-22-2.5-.1-.6-.4-1.1-1-1.5a883.2 883.2 0 0 0-32-4.5c.2-3 0-6-.5-9-.4-.6-.9-.9-1.5-1a31.7 31.7 0 0 0-17-16.5 44.9 44.9 0 0 0-41 3c-4.3 3.5-7 8-8 13.5l-2 9.5c-26.4 1.6-52 7-77 16-9 3.5-17.7 7.7-26 12.5a217 217 0 0 0-33 21.5 94.7 94.7 0 0 0-19 17.5c-8.2-2-16.5-3.1-25-3.5-2.3-.5-4.3-1.5-6-3-11-.1-12.8 4-5.5 12.5 1 6.3 2.8 12.3 5.5 18v7c-1.3-.2-2.5.2-3.5 1-.6-1-.5-1.8.5-2.5-2.5-3.8-4-8-4.5-12.5-2-4.6-4.3-8.9-7-13-.7-3-.7-6 0-9 4.3-6 10-7.7 17-5 4.4 1.2 9 2 13.5 2.5 3.6 2.4 7.6 3 12 2l35-28a340.3 340.3 0 0 1 54-27c20-5.2 40.4-9.2 61-12l2.5-2.5c1.5-4 3.1-8 5-12 5.8-6 12.3-11.2 19.5-15.5 11.7-1.6 23-.2 34 4 5.6 4 11 8.2 16.5 12.5 2.5 5.3 5.7 10 9.5 14.5 7.9.8 15.5 2.5 23 5a107 107 0 0 1 58 16c6.4 2 12.7 4.4 19 7 7.7 5.2 15.7 9.9 24 14l16 14a17.4 17.4 0 0 1 12 12.5h-3Z"/><path style="opacity:1" fill="#603424" d="M503.5 95.5v7a841 841 0 0 0-55-1v-8c3.1-5 7.1-9.1 12-12.5 9.7-2 19.4-1.7 29 1a29 29 0 0 1 14 13.5Z"/><path style="opacity:1" fill="#2d0301" d="M509.5 93.5c-1.4 1.8-3.4 2.5-6 2a29 29 0 0 0-14-13.5c-9.6-2.7-19.3-3-29-1a42.8 42.8 0 0 0-12 12.5l-2 6-2 1c-1-2.2-1.3-4.6-1-7 1-5.5 3.7-10 8-13.5 13-7.6 26.8-8.6 41-3a31.7 31.7 0 0 1 17 16.5Z"/><path style="opacity:1" fill="#5d3222" d="M554.5 116.5a33 33 0 0 0 13 3c29 8.7 55.3 22.6 79 41.5 3.8.8 6.8 2.8 9 6 1.3.5 2.6.7 4 .5.5 1.9 1.5 3.6 3 5l-15 2c-33 2.3-66 4-99 5-2.5-2-5.3-3.3-8.5-4l-25 2c-27.5-.2-55-.2-82.5 0-24.3-1.2-48.7-2-73-2.5a386.3 386.3 0 0 0-46-4 3.3 3.3 0 0 1-2-3.5c-3.7.4-4.7-1-3-4 3-5.2 7.3-8.7 13-10.5a92.1 92.1 0 0 1 22-13c2.1-2.2 4.4-4.2 7-6a822.7 822.7 0 0 1 35-15c9.9-2.6 19.9-4 30-4a18.3 18.3 0 0 0-11 7.5c-7.9 4-14.4 9.7-19.5 17a10.1 10.1 0 0 0-1.5 6c1 .1 2 0 3-.5a53 53 0 0 1 22-20 64.9 64.9 0 0 1 19-14c7.7-.3 15.4-1.1 23-2.5l5 .5a317.4 317.4 0 0 0-22.5 30.5c-1.7 2.4-2.5 5-2.5 8 1.9.2 3.4-.5 4.5-2a212 212 0 0 1 27.5-36 98.4 98.4 0 0 1 31 .5c1.1 4 2 8.2 2.5 12.5.6 3.2 2.4 4.9 5.5 5a65.5 65.5 0 0 0-3-18 59.8 59.8 0 0 1 50.5 24c3.3 6.2 6.8 12.2 10.5 18-1.1-15-8.1-27-21-35.5 5.4-.5 10.7-.4 16 .5Z"/><path style="opacity:1" fill="#440705" d="M443.5 93.5c-.3 2.4 0 4.8 1 7l2-1 2-6v8a841 841 0 0 1 55 1v-7c2.6.5 4.6-.2 6-2 .6.1 1.1.4 1.5 1 .5 3 .7 6 .5 9 10.7 1.3 21.4 2.8 32 4.5.6.4.9.9 1 1.5-1.8-.3-3.5 0-5 1a44.5 44.5 0 0 1 15 6c-5.3-.9-10.6-1-16-.5a44.8 44.8 0 0 1 21 35.5c-3.7-5.8-7.2-11.8-10.5-18a59.8 59.8 0 0 0-50.5-24 65.5 65.5 0 0 1 3 18c-3.1-.1-5-1.8-5.5-5a98 98 0 0 0-2.5-12.5 98.4 98.4 0 0 0-31-.5 212 212 0 0 0-27.5 36 4.6 4.6 0 0 1-4.5 2c0-3 .8-5.6 2.5-8a317.4 317.4 0 0 1 22.5-30.5l-5-.5c-7.6 1.4-15.3 2.2-23 2.5a64.9 64.9 0 0 0-19 14 53 53 0 0 0-22 20 5 5 0 0 1-3 .5c-.1-2.2.4-4.2 1.5-6 5.1-7.3 11.6-13 19.5-17 2.7-3.9 6.4-6.4 11-7.5-10.1 0-20.1 1.4-30 4a822.7 822.7 0 0 0-35 15 44.4 44.4 0 0 0-7 6 92.1 92.1 0 0 0-22 13c-5.7 1.8-10 5.3-13 10.5-2.6 3-6 4.3-10 4l7-7.5a44.5 44.5 0 0 0 19-16c5-.2 9-2.3 12-6.5 4.5-1.2 8.1-3.5 11-7l-1.5-1a14 14 0 0 1-7.5 2c8.3-4.8 17-9 26-12.5 25-9 50.6-14.4 77-16l2-9.5Z"/><path style="opacity:1" fill="#4d0503" d="M567.5 119.5c11-1 20.6 1.9 29 8.5 6.5-.4 11.9 2 16 7 2.5.3 4.8 1 7 2 1.5 2.6 3.5 4.8 6 6.5 4.8 1.4 9.5 3 14 5 5 7.1 11.3 12.6 19 16.5.8.7 1 1.5 1 2.5-1.4.2-2.7 0-4-.5a13.9 13.9 0 0 0-9-6c-23.7-19-50-32.8-79-41.5Z"/><path style="opacity:1" fill="#360504" d="M544.5 109.5c7.4.4 14.7 1.2 22 2.5 39 10.2 73.3 28.7 103 55.5a19 19 0 0 1 3 5c-1.3.6-2.6 1-4 1.5-7 .5-14 .7-21 .5l15-2a11.4 11.4 0 0 1-3-5c0-1-.2-1.8-1-2.5-7.7-3.9-14-9.4-19-16.5-4.5-2-9.2-3.6-14-5a18.7 18.7 0 0 1-6-6.5c-2.2-1-4.5-1.7-7-2-4.1-5-9.5-7.4-16-7-8.4-6.6-18-9.4-29-8.5a33 33 0 0 1-13-3 44.5 44.5 0 0 0-15-6c1.5-1 3.2-1.3 5-1Z"/><path style="opacity:1" fill="#090604" d="M286.5 170.5a8 8 0 0 1 7 0c-.2.6-.5 1-1 1.5 1.2.7 2.2.6 3-.5 21.2 2.8 42.6 5.3 64 7.5 20 .3 40 1 60 2 43 .8 86 .3 129-1.5 33-1 66-2.7 99-5 7 .2 14 0 21-.5 1.4-.4 2.7-1 4-1.5 10.3-.8 20.7-2 31-4 5.7-.2 11.3 0 17 .5l2.5 2.5c.7 5 .7 10 0 15-3.7 9.8-7.2 19.8-10.5 30-.1 2.2-.8 4.2-2 6a889.3 889.3 0 0 0-29 228c-1 2.4-1.3 5.1-1 8 1 23.7 1.8 47.3 2.5 71 2.9 25.3 5.9 50.7 9 76 3.7 18.4 7.7 36.8 12 55a240 240 0 0 0 9.5 26c-.3 3.5 0 6.9 1 10 .3 2.3 0 4.5-1 6.5-3.5.2-6.9.7-10 1.5h-6a462 462 0 0 0-35-11.5 764.5 764.5 0 0 0-240-21c-15 2-30 3.3-45 4-13.2 2.4-26.2 4.9-39 7.5-3-.2-6 0-9 .5-11.8 2.4-23.4 5-35 8l-31 12.5c-3 .9-6 2.2-8.5 4 0 2.2.8 4.2 2.5 6-.2 1.2-1 1.9-2 2l-7-6a8.5 8.5 0 0 0-5 3h-2c-1-.9-1.7-2-2-3.5a21 21 0 0 1 3-4.5c.2-2.9.6-5.9 1-9 .5-1.6.9-3.3 1-5 .8-1.4 1.8-2.8 3-4a958.3 958.3 0 0 0 35-231v-2a85 85 0 0 0 0-26c0-74.3-7.6-147.6-23-220l-3-6c.3-2.9 0-5.6-1-8a66.1 66.1 0 0 1-5.5-18c-7.3-8.5-5.5-12.6 5.5-12.5 1.7 1.5 3.7 2.5 6 3 8.5.4 16.8 1.5 25 3.5Z"/><path style="opacity:1" fill="#300402" d="M298.5 167.5c-2.8.4-3.8 1.8-3 4-.8 1-1.8 1.2-3 .5.5-.4.8-1 1-1.5a8 8 0 0 0-7 0 94.7 94.7 0 0 1 19-17.5 217 217 0 0 1 33-21.5 14 14 0 0 0 7.5-2l1.5 1a20.4 20.4 0 0 1-11 7c-3 4.2-7 6.3-12 6.5a44.5 44.5 0 0 1-19 16l-7 7.5Z"/><path style="opacity:1" fill="#6a3a27" d="M308.5 163.5c-1.7 3-.7 4.4 3 4-.1 1.6.5 2.8 2 3.5 15.4.4 30.8 1.8 46 4 24.3.5 48.7 1.3 73 2.5 27.5-.2 55-.2 82.5 0l25-2c3.2.7 6 2 8.5 4-43 1.8-86 2.3-129 1.5-20-1-40-1.7-60-2-21.4-2.2-42.8-4.7-64-7.5-.8-2.2.2-3.6 3-4 4 .3 7.4-1 10-4Z"/><path style="opacity:1" fill="#faf6b2" d="M345.5 184.5c4.8 1.4 9.8 2 15 2 41.2 3.4 82.6 4.8 124 4l73-.5c22-1 44-2.2 66-3.5 10.9.3 21.5-.4 32-2 9.9-.2 19.5-1.5 29-4 5 .2 10 0 15-.5 1.2-.2 2.2-.7 3-1.5 4.3-1.2 8.6-2.2 13-3l4 1a26.9 26.9 0 0 0-3.5 6c-6.5 20.6-12.9 41.3-19 62-4 20.7-8.2 41.3-12.5 62-.7.4-1.2 1-1.5 2-.5 3-.7 6-.5 9-2.7 17.6-5 35.3-7 53l-2 1-1-10 3.5-42c1.4-10.2 3.7-20.2 7-30 2-11.3 3.7-22.6 5-34a315 315 0 0 0 11.5-44c1.6.1 2.8-.5 3.5-2-.2-4.9 1.1-9.2 4-13l3.5-14a819.4 819.4 0 0 0-53 7.5 1096 1096 0 0 1-50 2 211.6 211.6 0 0 1-32 3c-61.7.7-123.3.7-185 0a3090 3090 0 0 1-88-10c-5.2-2.2-10.5-4-16-5-7.9-.3-15.6-1.5-23-3.5 2 5.1 3.3 10.5 4 16-.6 3.6-2 4-4 1-1.9-8-4.5-15.6-8-23a25 25 0 0 1 7 .5 56.1 56.1 0 0 0 26 5c2.2 1.3 4.6 2.3 7 3 16.6 2.4 33.3 4.2 50 5.5Z"/><path style="opacity:1" fill="#af9b65" d="M702.5 178.5c-.8.8-1.8 1.3-3 1.5-5 .5-10 .7-15 .5 5.8-1 11.8-1.6 18-2Z"/><path style="opacity:1" fill="#f7f2af" d="M280.5 247.5c4.4 21.8 8 43.8 10.5 66 1.4 20 2.6 40 3.5 60-1 13.2-1.3 26.5-1 40h-1c-1.2-51.8-6.4-103-15.5-154a82.9 82.9 0 0 0-4-15c-2-14-4.5-28-7.5-42 1-7.1 2.8-7.5 5.5-1 1.9 15.8 5 31 9.5 46Z"/><path style="opacity:1" fill="#320606" d="m256.5 202.5 3 6a14.4 14.4 0 0 0-4 6l-7.5 2c.2 4.5-1.8 7.5-6 9-1.9 2.4-3.2 5-4 8-4.7 5.1-9.2 10.5-13.5 16a22.6 22.6 0 0 1-8 16l-9 20c-1.2 5.3-3.7 10-7.5 14 0 4.7-1.7 8.7-5 12-1-.3-1.5-1-1.5-2 6.9-16.8 14-33.4 21.5-50a788.1 788.1 0 0 1 37.5-54l4-3Z"/><path style="opacity:1" fill="#5c3221" d="M252.5 223.5c0 1-.2 1.8-1 2.5 1.8.1 3.4-.4 5-1.5 1.3.6 2.1 1.6 2.5 3 2.7 11.7 4.6 23.5 5.5 35.5a9.3 9.3 0 0 0 1 7c-1.5 1.7-2.2 3.3-2 5-2.6.5-5.3.7-8 .5v4h8v4h-4v4a9 9 0 0 1 7.5 2 69 69 0 0 0 4.5 28.5 61.8 61.8 0 0 0-4 17.5c.2 3.5.8 6.8 2 10a47.7 47.7 0 0 0-2 18h4v4c2.2-.2 3.9.6 5 2.5-.8 21.4-1.3 43-1.5 64.5-1 2.6-1.5 5.2-1.5 8l-21 3a18 18 0 0 1-3.5-2l-3 3c-7.3-.5-15-.8-23-1-4 .8-8.3 1.5-12.5 2a51 51 0 0 0-16 0c-4.3-.6-8.7-1.1-13-1.5a7 7 0 0 1-3.5-2.5 83.7 83.7 0 0 1 .5-28l-1-4a89.4 89.4 0 0 0-3 16c-.2-4.7 0-9.3.5-14a462 462 0 0 1 9-37 273 273 0 0 1 14.5-55c5-8.9 9-18.2 12-28a26 26 0 0 0 5.5-13 680.7 680.7 0 0 0 17-31 362 362 0 0 0 14-21c1.7-1.9 3.5-3.5 5.5-5Z"/><path style="opacity:1" fill="#633724" d="M259.5 208.5c15.4 72.4 23 145.7 23 220v21c-14 .5-28 1.2-42 2-18.4-.3-36.7 0-55 1-4.4.3-8.7 0-13-1 .8-8 1.4-16 2-24 .5-5.3 1.5-10.7 3-16l1 4a83.7 83.7 0 0 0-.5 28 7 7 0 0 0 3.5 2.5c4.3.4 8.7.9 13 1.5a51 51 0 0 1 16 0c4.2-.5 8.4-1.2 12.5-2 8 .2 15.7.5 23 1l3-3a18 18 0 0 0 3.5 2l21-3c0-2.8.5-5.4 1.5-8 .2-21.6.7-43 1.5-64.5a4.8 4.8 0 0 0-5-2.5v-4h-4c-.5-6.2.2-12.2 2-18a34.8 34.8 0 0 1-2-10c.5-6 1.8-11.9 4-17.5a69 69 0 0 1-4.5-28.5 9 9 0 0 0-7.5-2v-4h4v-4h-8v-4c2.7.2 5.4 0 8-.5-.2-1.7.5-3.3 2-5a9.3 9.3 0 0 1-1-7c-1-12-2.8-23.8-5.5-35.5a4.3 4.3 0 0 0-2.5-3 7.3 7.3 0 0 1-5 1.5c.8-.7 1-1.5 1-2.5.8-3 1.8-6 3-9 .9-2.4 2.2-4.4 4-6Z"/><path style="opacity:1" fill="#fbf9e9" d="M252.5 205.5a788.1 788.1 0 0 0-37.5 54c-7.4 16.6-14.6 33.2-21.5 50l-2 2h-3v-4h3a133 133 0 0 0 6.5-20l3-3c3.3-10 7.2-19.6 11.5-29 1.6-4.5 3.8-8.9 6.5-13 5.4-7 10.4-14.4 15-22 2.4-2.7 5-5 8-7 1.7-3.7 4.2-6.9 7.5-9.5 1.7-.7 2.7-.2 3 1.5Z"/><path style="opacity:1" fill="#5d3222" d="M709.5 225.5c3.8 6.8 7.8 13.4 12 20 7 12.1 14.1 24.1 21.5 36 26 55 40.6 113 43.5 174h-9c-8.5-1-17.2-1.7-26-2.5a7342 7342 0 0 0-70-2.5c-.2-76.4 9-151.4 28-225Z"/><path style="opacity:1" fill="#4d0904" d="M255.5 214.5a71 71 0 0 0-3 9c-2 1.5-3.8 3.1-5.5 5a362 362 0 0 1-14 21 680.7 680.7 0 0 1-17 31 26 26 0 0 1-5.5 13c-3 9.8-7 19.1-12 28a273 273 0 0 0-14.5 55 462 462 0 0 0-9 37c-.5 4.7-.7 9.3-.5 14-.6 8-1.2 16-2 24 4.3 1 8.6 1.3 13 1-3.1 1-6.5 1.3-10 1v4c1.3-.2 2.3.1 3 1h-6c1 12.6 1.3 25.3 1 38l-2-35h-4c.6-6.4-.7-12.2-4-17.5a16 16 0 0 0 .5-13.5c-.2 3.9-.7 7.5-1.5 11 .1-7.3.5-14.7 1-22l2 4c.8-.9 1.3-1.9 1.5-3l1-9c1.8-8.1 4.3-16 7.5-23.5l-1-1c.8-3 1.3-6.2 1.5-9.5l6-18c-.3-6.3 1.3-12 5-17l1-6c2.6-3.3 4.7-6.8 6.5-10.5l-1-1a411 411 0 0 0 7.5-21.5c1.3-3.4 3.2-6.4 5.5-9 1-3 1.3-6 1-9l9-20c4.8-4.2 7.5-9.5 8-16 4.3-5.5 8.8-10.9 13.5-16 .8-3 2.1-5.6 4-8 4.2-1.5 6.2-4.5 6-9l7.5-2Z"/><path style="opacity:1" fill="#837755" d="M684.5 306.5a54 54 0 0 1-2 11c-.2-3 0-6 .5-9 .3-1 .8-1.6 1.5-2Z"/><path style="opacity:1" fill="#fefab8" d="M411.5 288.5c2.6 3.9 5 7.9 7.5 12 1 4.3 2.8 8.3 5 12 .8 9.4.4 18.7-1 28l-8 16a50 50 0 0 0-14.5 14.5c-3.7 3.2-8 4.7-13 4.5-.2 1.3.2 2.5 1 3.5 3.8 2.3 7.5 4.8 11 7.5 1.2 1 2.5 1.3 4 1v4c3.4.4 6 2 8 5a54 54 0 0 1 12 48 10.9 10.9 0 0 0-4.5 10c-1.6 2.2-3 4.5-4 7-8.2 8.8-17 16.8-26.5 24a4.3 4.3 0 0 0 3 2.5c2.4.5 4.7 1.2 7 2 5.8 5 11.3 10 16.5 15.5 2.8 4.4 5.1 9.1 7 14l1 8 2 2a40 40 0 0 1-4 22l-1 6c-4.4 7-8.9 13.8-13.5 20.5a59.6 59.6 0 0 1-60 8L331 574.5c-21.6-27.3-20.5-53.5 3.5-78.5 3.8-2.3 7.5-4.8 11-7.5 4-.4 7.6-1.6 11-3.5-7.2-4.5-14.9-8.5-23-12-4-5-7.8-10.2-11.5-15.5-11.7-25-7.9-47.2 11.5-66.5 7.6-4 15-8.5 22-13.5a95 95 0 0 1-15-6.5 7 7 0 0 1-2.5-4.5 48.2 48.2 0 0 1-21-54c3-7.6 6.8-15 11-22 22-23 46.4-26.1 73.5-9.5 3.2 2.7 6.5 5.2 10 7.5Z"/><path style="opacity:1" fill="#030101" d="M361.5 275.5c39.7.2 59 20.2 57.5 60a37.8 37.8 0 0 0-4.5 12 49.7 49.7 0 0 1-53 27 50.7 50.7 0 0 1-41-48.5c1-16.3 7.6-29.6 20-40a90 90 0 0 1 21-10.5Z"/><path style="opacity:1" fill="#fefcfc" d="M356.5 283.5c25.4-4.3 43.4 5 54 28 5.7 26.8-4 45.3-29 55.5-7.7.7-15.3.7-23 0a12 12 0 0 0-11-3.5v-4c-1.5.3-2.8 0-4-1l-7-7a4.9 4.9 0 0 1-1-4h-4c.6-4-.5-7.3-3.5-10-2.8-18 2-33.3 14.5-46 3.3-2.4 7-4.1 11-5a9 9 0 0 0 3-3Z"/><path style="opacity:1" fill="#250300" d="m339.5 319.5-2 9a7.2 7.2 0 0 1 2 6 9 9 0 0 1-3-3 4.9 4.9 0 0 0-1 4c-1-.1-1.8-.8-2-2-.8-3.3-1.2-6.6-1-10 1.2-2.4 2.4-2.4 3.5 0 .5-2 1.7-3.4 3.5-4Z"/><path style="opacity:1" fill="#fefcfb" d="M339.5 334.5c.3-2.3-.4-4.3-2-6l2-9c-.7-4 .5-7.4 3.5-10 1.8-3.3 3.3-6.6 4.5-10 1.7.2 3.4 0 5-.5 7.6-4.7 16-6.3 25-5 4.6 2.1 9.2 4 14 5.5v4h4c3.1 8 5.8 16.1 8 24.5-2.8 6.5-5.4 13-8 19.5h-4v4c-3 .4-5.7 1.5-8 3.5-4.7 0-9.2 1-13.5 2.5a98.4 98.4 0 0 0-14.5-3 31.6 31.6 0 0 1-16-20Z"/><path style="opacity:1" fill="#0d0100" d="M371.5 351.5v-4c8.6-1.5 15-6.2 19-14a32.5 32.5 0 0 0 0-16c-2-1.5-3-3.5-3-6-3.7-2.7-7.7-5.2-12-7.5-12-1.5-21 3-27 13.5-2.7 10-.4 18.3 7 25 3.1 1.2 5.8 2.9 8 5 .1.7 0 1.4-.5 2a5.8 5.8 0 0 0-5.5-2 22.2 22.2 0 0 1-9-6c-.9-3-2.4-5.7-4.5-8-.8-5.4-.7-10.7.5-16 2.3-3.2 4.3-6.5 6-10 8.3-7.4 18-9.7 29-7 2 2.1 4.6 3.4 7.5 4 9.9 11.3 11 23.7 3.5 37-5.1 5.7-11.4 9-19 10Z"/><path style="opacity:1" fill="#fffdfc" d="M371.5 347.5h-8a23.8 23.8 0 0 0-8-5c-7.4-6.7-9.7-15-7-25 6-10.5 15-15 27-13.5 4.3 2.3 8.3 4.8 12 7.5 0 2.5 1 4.5 3 6a32.5 32.5 0 0 1 0 16 25.1 25.1 0 0 1-19 14Z"/><path style="opacity:1" fill="#570405" d="M379.5 315.5h4c.2 3.4 1 6.7 2 10-2.2 12.8-9.6 17.4-22 14-1.2-.2-1.9-1-2-2 2.6-.3 5 .3 7 2 1.7-1.4 3.7-2.3 6-2.5a11 11 0 0 1 5.5-5.5c2.1-5.4 2-10.8-.5-16Z"/><path style="opacity:1" fill="#6f0203" d="M379.5 315.5c-3.3-.9-6.6-1.5-10-2l-6 1c-.6 2-2 3-4 3v18c-1.3.2-2.5-.2-3.5-1-3.2-19 4.6-26.6 23.5-23v4Z"/><path style="opacity:1" fill="#940902" d="M379.5 315.5c2.5 5.2 2.6 10.6.5 16a11 11 0 0 0-5.5 5.5c-2.3.2-4.3 1-6 2.5a8.8 8.8 0 0 0-7-2c-1.3 0-2-.7-2-2v-18c2 0 3.4-1 4-3l6-1c3.4.5 6.7 1.1 10 2Z"/><path style="opacity:1" fill="#0d0100" d="M335.5 335.5c-.3-1.5 0-2.8 1-4a9 9 0 0 0 3 3 31.6 31.6 0 0 0 16 20c5 .6 9.8 1.6 14.5 3 4.3-1.6 8.8-2.4 13.5-2.5 2.3-2 5-3.1 8-3.5v-4h4l8-19.5c-2.2-8.4-4.9-16.5-8-24.5h-4v-4c-4.8-1.6-9.4-3.4-14-5.5-9-1.3-17.4.3-25 5a13 13 0 0 1-5 .5 69.4 69.4 0 0 1-4.5 10c-3 2.6-4.2 6-3.5 10-1.8.6-3 2-3.5 4-1-2.4-2.3-2.4-3.5 0a73 73 0 0 0 4-14c2.5-3 4.5-6.3 6-10 6.3-4.5 13-8.3 20-11.5 12.7-2 23.7 1.6 33 10.5 1.2 1 2.5 1.3 4 1 2 6 4.5 11.6 7.5 17 2.3 26.9-9.9 42.6-36.5 47a37 37 0 0 1-11-3.5c-2.6-.5-5.3-.7-8-.5v-4c-2.5-.3-4.8-1-7-2.5-2.4-2.9-4-6-5-9.5h-4v-8Z"/><path style="opacity:1" fill="#360200" d="M357.5 347.5c2.2-.3 4 .3 5.5 2 .5-.6.6-1.3.5-2h8v4c-5.5.9-10.1-.4-14-4Z"/><path style="opacity:1" fill="#e7d38e" d="M675.5 370.5c0 8.2-.6 16.2-2 24-.2-5 .2-10 1-15-.1-2.3-1-4.3-2.5-6-.9 4.8-2 9.4-3.5 14-.6 17.1-2 34.1-4 51-.2 4.6.5 8.9 2 13-2.3 9-2.7 18.2-1 27.5a75.7 75.7 0 0 0 1 36c-.2 2.2-.5 4.4-1 6.5 1.5 15 2.7 30 3.5 45a9.9 9.9 0 0 1 2 5c1.7 18.4 4.4 36.7 8 55 2.9.4 3-.4.5-2.5a6 6 0 0 0 2-4c-.7-3.8-1-7.6-1-11.5 2 8.1 3.7 16.5 5 25a12 12 0 0 1-2.5-4c-1 1.9-1.5 3.9-1.5 6 1.4 4.9 2.2 9.9 2.5 15 3.4 10.8 7.4 21.5 12 32 .5 2 .7 4 .5 6a17 17 0 0 1-9-3c1.7-5.5 1-10.7-2-15.5l1-1a164 164 0 0 1-12-29.5l-2-2c-.9-10-2-20-3.5-30-1.2-5.8-3-11.4-5-17l-1-12a26 26 0 0 1-3.5-5c1-4.5 2.7-8.9 5-13a9 9 0 0 1-5.5-9 6.5 6.5 0 0 0-3 3c-.2 2.3-.7 4.4-1.5 6.5l1 1a34 34 0 0 0-6.5 10.5 55.3 55.3 0 0 1-8 6 44.3 44.3 0 0 1-13.5 16c-3 1.2-6 1.2-9 0-3 .5-5.3 2-7 4.5-6.3.7-12.7.7-19 0-4.8-6.2-11.3-9-19.5-8.5a4 4 0 0 0-2 1 36.8 36.8 0 0 1-13.5-15c-3-.8-6-1.3-9-1.5-1.8-2.5-3.5-5-5-7.5-2.8.2-4.5-1.2-5-4-2 2.7-3.3 2.3-4-1-.5-3.2.3-5.8 2.5-8a50 50 0 0 0-18-59c-.3-1.3-.8-2.4-1.5-3.5-7.2-2.8-14.2-5.8-21-9 .5-.4.8-1 1-1.5a4.9 4.9 0 0 0-4-1c3.1-1 6.5-1.3 10-1 3.5-.1 6.8-1 10-2.5 7.5-6.1 14.6-12.6 21.5-19.5l1-6c2-1.5 3.1-3.5 3.5-6-.5-6-.5-12 0-18l-.5-12c-6.4-12-15-22.2-25.5-30.5-4-.8-8-1.3-12-1.5-6.3-.7-12.6-1-19-1 2.8-1 5.8-1.3 9-1v-4c25.3-1.8 41.1-15.1 47.5-40a55 55 0 0 0-25.5-58.5c-31.4-13.6-56.6-6-75.5 22.5l-6 18c-1 9.2-.4 18.2 2 27 3.8 5 7.2 10.3 10 16 1.6 1.2 3.5 2 5.5 2.5a30 30 0 0 0 5 7.5c1-.5 2-.8 3-1 2.1 1.3 4.1 2.8 6 4.5l9 1c.5.4.8 1 1 1.5a9.1 9.1 0 0 0-7 5 44.3 44.3 0 0 0-30.5 28 58.6 58.6 0 0 0-2 39c6.3 11 14.5 20.5 24.5 28.5l7 1c1.4 1.6 3 2.8 5 3.5-3.2 3.4-6.8 6-11 8h-4c1-9-3-12.8-12-11 0-2 1-3.6 3-4.5-2.3-.7-4.6-1.2-7-1.5v-3c1 .1 2 0 3-.5-2-.7-4-.5-6 .5l-3-3c2.9-3 2.2-4.7-2-5 .2-4.7-.3-9.4-1.5-14-1.3-2.6-3-3.2-5.5-2a3 3 0 0 1-1-3 54 54 0 0 0-12-48c-2-3-4.6-4.6-8-5v-4c-1.5.3-2.8 0-4-1-3.5-2.7-7.2-5.2-11-7.5-.8-1-1.2-2.2-1-3.5 5 .2 9.3-1.3 13-4.5a50 50 0 0 1 14.5-14.5l8-16c1.4-9.3 1.8-18.6 1-28-2.2-3.7-4-7.7-5-12-2.4-4.1-5-8.1-7.5-12 2.4-1.5 4.4-.8 6 2 1.2 1 2.5 1.3 4 1 1.2 6.1 3 12.1 5.5 18 1-1.4 2.3-2.4 4-3l1-8c2.8-2.5 4.8-5.5 6-9 3.8-1.2 7.3-3 10.5-5.5a7.4 7.4 0 0 1 0-4.5c4.4 1.4 8 .2 11-3.5 1.3-.5 2.6-.7 4-.5.3-3.3 2-4.3 5-3 5.4-2.8 11-4.5 16.5-5 9.2 1.4 18.4 2.9 27.5 4.5 3 2.2 5.6 4.5 8 7 1 .5 2 .6 3 .5-.3 3 1 4.3 4 4-.3 3 1 4.3 4 4v4c1.3-.2 2.5.2 3.5 1 2 3.2 3.5 6.5 4.5 10 4 .4 7.7-.6 11-3 1.2.4 2.2 1.1 3 2l-5.5 14c-.7 7.3-.7 14.7 0 22 .3 1 .8 1.6 1.5 2 1 7.5 3.7 14.1 8.5 20a70 70 0 0 1 9.5 10.5c3.9 2 7.9 3.9 12 5.5 1.8 3 4.5 4.2 8 4v4c-3.4-.2-6.7 0-10 .5-1 .3-1.6.8-2 1.5a50.6 50.6 0 0 0-27.5 54c1.5 14.3 7.7 26 18.5 35.5l11 6.5c2.6.8 5.3 1.3 8 1.5.8 1 1.2 2.2 1 3.5a27 27 0 0 0-16 8.5 19.6 19.6 0 0 0-10.5 7.5c-3.2 4-5.9 8.3-8 13-1 5.5-2.2 10.8-4 16a54.7 54.7 0 0 0 23.5 52.5c1.8 1.1 3.8 1.6 6 1.5 10 6.8 21 9 33 6.5 5.3-1 10.3-2.6 15-5 2.2-2.2 4.9-3.6 8-4 3.8-4.5 8-8.7 12.5-12.5 2-6.6 4.7-12.9 8-19 1.6-10 2.3-20 2-30a32 32 0 0 1-9-16 200.3 200.3 0 0 0-24.5-17.5 25 25 0 0 0-7-.5c-.3-1.5 0-2.8 1-4 3.7-.7 7.4-1.5 11-2.5a50 50 0 0 0 13-13.5c4.2-2.4 6.7-6 7.5-11l7-10c1.6-13 .2-25.7-4-38-3-3.4-5.7-7-8-11a67.7 67.7 0 0 0-27.5-18l1-2c4.8-.7 9.4-1.8 14-3.5l16.5-16.5a78 78 0 0 0 6.5-46c-.3-1.8 0-3.5 1-5 2.6 2.4 4.6 5.3 6 8.5 2.3.5 4.6.7 7 .5a9 9 0 0 1 3.5-7l1-8c1.9-.6 3.6-1.6 5-3 4.4-18.3 8.2-36.8 11.5-55.5a17.4 17.4 0 0 1 4-18 8 8 0 0 1-1-3.5 682 682 0 0 1 9-24.5 15 15 0 0 0-1.5-5.5c-3.2-1-6.4-.6-9.5 1l-12-1c-2.7-.2-5 .6-7 2.5-10.1 1.1-20.3 2-30.5 2.5-2.7.1-5.2.8-7.5 2a14.8 14.8 0 0 0-5.5-3c-2.7 3.6-5.7 3.9-9 1-3.7 1.7-7.5 3-11.5 4-50.5-.2-100.7-.6-150.5-1l-11.5 2a409 409 0 0 0-47.5 0l-29.5-2a9.4 9.4 0 0 1-3-3l-28-2c-2.2.9-4.4.5-6.5-1-3-.2-6.2.1-9.5 1a16.7 16.7 0 0 0-13-2c-4.8-1.2-9.6-2.2-14.5-3a4 4 0 0 1-2 1 27.4 27.4 0 0 1-11-6c-2 1.4-4 2.2-6.5 2.5a4 4 0 0 0-2 3.5c2.4 4 4.2 8.4 5.5 13 .6 2.4.4 4.7-.5 7 2.9 2.3 3.6 5.1 2 8.5.6 6.7 1.6 13.4 3 20-1 3-1.3 6.2-1 9.5-4.5-15-7.6-30.2-9.5-46-2.7-6.5-4.6-6.1-5.5 1a14.5 14.5 0 0 1-2-9c2 3 3.4 2.6 4-1-.7-5.5-2-10.9-4-16 7.4 2 15.1 3.2 23 3.5 5.5 1 10.8 2.8 16 5 29.3 3.8 58.6 7 88 10 61.7.7 123.3.7 185 0 10.7-.2 21.4-1.2 32-3 16.7-.3 33.4-1 50-2 17.7-3.1 35.4-5.6 53-7.5-1 4.6-2.3 9.3-3.5 14a19.7 19.7 0 0 0-4 13 3.3 3.3 0 0 1-3.5 2 315 315 0 0 1-11.5 44c-1.3 11.4-3 22.7-5 34-3.3 9.8-5.6 19.8-7 30l-3.5 42 1 10 2-1Z"/><path style="opacity:1" fill="#fdf6b3" d="M575.5 280.5v3a3 3 0 0 1-1 3 39.9 39.9 0 0 0-19 25 9 9 0 0 0-5.5 1c-.5 9-.7 18-.5 27-.7-.4-1.2-1-1.5-2-.7-7.3-.7-14.7 0-22 2-4.6 3.7-9.3 5.5-14a70.8 70.8 0 0 1 14-17.5c2.3-2 5-3.2 8-3.5Z"/><path style="opacity:1" fill="#020100" d="M592.5 375.5c-2.5.2-4.8-.1-7-1a52.5 52.5 0 0 1-34-45 39 39 0 0 1 4-18 39.9 39.9 0 0 1 19-25 3 3 0 0 0 1-3c6-1.5 12-3.3 18-5.5 29-2 47.5 10.9 55.5 38.5 3.6 28.1-7.5 47.6-33.5 58.5-7.7.5-15.3.7-23 .5Z"/><path style="opacity:1" fill="#fefcfc" d="M593.5 283.5c5.4-.3 10.7 0 16 1 7.6 3.3 15 7 22 11v4a3 3 0 0 1 3 1 45 45 0 0 1 2.5 50 23.8 23.8 0 0 0-5.5 9c-1.5-.3-2.8 0-4 1a38.7 38.7 0 0 1-26 9 44.4 44.4 0 0 1-41.5-28c-.4-4.7-.9-9.4-1.5-14 .6-4.6 1.1-9.3 1.5-14 2.5-2.9 3.6-6.2 3.5-10 1 .1 2 0 3-.5 2-4.3 5-7.8 9-10.5 6-3.3 12-6.3 18-9Z"/><path style="opacity:1" fill="#0a0101" d="M637.5 322.5c0 .5-.4.9-1 1a3 3 0 0 1-1-3h-4c.3-2.4 0-4.8-1-7-12.6-19-29.1-23-49.5-12a91 91 0 0 0-8.5 10c-1 5.6-2.4 11-4 16.5 2 5 3.4 10.1 4 15.5l7 7c1.2 1 2.5 1.3 4 1v4c5.8 2 11.8 3.2 18 4l8-1c5-2 9.6-4.4 14-7v-4h4c.4-3 1.6-5.6 3.5-8 .5-3 .7-6 .5-9 1 0 2 .4 3 1l2 5c-1.4 5.1-3 10.1-5 15h-4v4a35 35 0 0 1-11 4.5l-3 3c-8.7.8-17.4.7-26-.5a7.5 7.5 0 0 0-7-3.5c-.8-1-1.2-2.2-1-3.5h-4c.3-3-1-4.3-4-4a65 65 0 0 1-6.5-14 36.9 36.9 0 0 1-1-16c5.6-22 19.8-32.4 42.5-31.5a227 227 0 0 1 17 5.5c-.3 3 1 4.3 4 4v4h4a121 121 0 0 0 5.5 14c.5 1.6.7 3.3.5 5Z"/><path style="opacity:1" fill="#460100" d="M631.5 320.5h4a3 3 0 0 0 1 3c.6-.1 1-.5 1-1 1.3 4.7 1 9.4-1 14l-2-5c-1-.6-2-1-3-1v-10Z"/><path style="opacity:1" fill="#fefdfd" d="M631.5 320.5v10c.2 3 0 6-.5 9-1.9 2.4-3 5-3.5 8h-4v4c-4.4 2.6-9 5-14 7l-8 1c-6.2-.8-12.2-2-18-4v-4c-1.5.3-2.8 0-4-1l-7-7c-.6-5.4-2-10.5-4-15.5 1.6-5.4 3-11 4-16.5a91 91 0 0 1 8.5-10c20.4-11 36.9-7 49.5 12 1 2.2 1.3 4.6 1 7Z"/><path style="opacity:1" fill="#320508" d="M595.5 347.5c3.3 1.1 6.6 1.1 10 0a5.8 5.8 0 0 0-2 5c-3.3 1.2-6.7.9-10-1 1.3-1 2-2.3 2-4Z"/><path style="opacity:1" fill="#040000" d="m575.5 331.5 4 2c1.9 3.1 3.2 6.4 4 10 3.6 2.3 7.6 3.6 12 4 0 1.7-.7 3-2 4-1.8.3-3.5 0-5-1a487 487 0 0 0-8-7c-.8-2.3-2.2-4.3-4-6a9.9 9.9 0 0 1-1-6Z"/><path style="opacity:1" fill="#3e0c15" d="M578.5 321.5c.7 4 1 8 1 12l-4-2v-8c1.3-.3 2.3-1 3-2Z"/><path style="opacity:1" fill="#65090a" d="M622.5 323.5c.7 1 1 2.1 1 3.5.2 2-.5 3.5-2 4.5a25 25 0 0 0 1-8Z"/><path style="opacity:1" fill="#fefdfd" d="M622.5 323.5a25 25 0 0 1-1 8c.1 2.5-.6 4.9-2 7a23.7 23.7 0 0 1-14 9 15.2 15.2 0 0 1-10 0c-4.4-.4-8.4-1.7-12-4-.8-3.6-2.1-6.9-4-10 0-4-.3-8-1-12 2.2-3 3.9-6.4 5-10 2.8-2.4 6.1-4 10-5 14.6-2.7 24.3 3 29 17Z"/><path style="opacity:1" fill="#770001" d="M596.5 315.5a14.2 14.2 0 0 1-6 4 25 25 0 0 0 0 14c1.5 1.8 2.5 3.8 3 6 13.8.2 19.2-6.5 16-20h4c1.3 2.2 2 5 2 8-.4 9-5 14.4-14 16-10-.7-15.3-6-16-16l2.5-9c.4-.6.9-.9 1.5-1l7-2Z"/><path style="opacity:1" fill="#920d02" d="M597.5 312.5h6a9.8 9.8 0 0 0 6 7c3.2 13.5-2.2 20.2-16 20-.5-2.2-1.5-4.2-3-6a25 25 0 0 1 0-14c2.4-.9 4.4-2.2 6-4 0-1.1.4-2.1 1-3Z"/><path style="opacity:1" fill="#0e0201" d="M603.5 352.5c-.1-2 .5-3.7 2-5a23.7 23.7 0 0 0 14-9c1.4-2.1 2.1-4.5 2-7 1.5-1 2.2-2.5 2-4.5 0-1.4-.3-2.6-1-3.5-4.7-14-14.4-19.7-29-17-3.9 1-7.2 2.6-10 5-1.1 3.6-2.8 7-5 10-.7 1-1.7 1.7-3 2a30.4 30.4 0 0 1 9-17 381 381 0 0 1 14-6.5c1.3-.7 2.7-.7 4 0 6 2.3 11.6 4.8 17 7.5a6 6 0 0 0 3.5 6c.4 3.1 1.8 5.8 4 8 1.4 5.6.4 10.6-3 15-.5 4.5-2.7 8-6.5 10.5-4 3.6-8.6 5.5-14 5.5Z"/><path style="opacity:1" fill="#530401" d="M597.5 312.5c6.8-1.6 12.2.7 16 7h-4a9.8 9.8 0 0 1-6-7h-6Z"/><path style="opacity:1" fill="#2f0705" d="M597.5 312.5c-.6.9-1 1.9-1 3l-7 2c2-2.4 4.7-4 8-5Z"/><path style="opacity:1" fill="#fefbc3" d="M653.5 311.5a78 78 0 0 1-6.5 46L630.5 374a67.6 67.6 0 0 1-14 3.5c-7 .2-14 0-21-.5a5.5 5.5 0 0 1-3-1.5c7.7.2 15.3 0 23-.5 26-10.9 37.1-30.4 33.5-58.5-8-27.6-26.5-40.5-55.5-38.5-6 2.2-12 4-18 5.5v-3a47.7 47.7 0 0 1 37-7.5 65.5 65.5 0 0 0 18 8c6.2 5.5 12 11.4 17.5 17.5 1.5 3.2 2.5 6.5 3 10l2.5 3Z"/><path style="opacity:1" fill="#aea06b" d="M655.5 184.5a183.4 183.4 0 0 1-32 2 374 374 0 0 1 32-2Z"/><path style="opacity:1" fill="#5e523b" d="M345.5 184.5c5.2 0 10.2.6 15 2-5.2 0-10.2-.6-15-2Z"/><path style="opacity:1" fill="#fefbc8" d="M555.5 311.5a39 39 0 0 0-4 18 52.5 52.5 0 0 0 34 45 9.6 9.6 0 0 1-6 1c-4.1-1.6-8.1-3.4-12-5.5a70 70 0 0 0-9.5-10.5 38.4 38.4 0 0 1-8.5-20c-.2-9 0-18 .5-27a9 9 0 0 1 5.5-1Z"/><path style="opacity:1" fill="#470c0d" d="M207.5 285.5c.3 3 0 6-1 9a30.7 30.7 0 0 0-5.5 9 411 411 0 0 1-7.5 21.5l1 1c-1.8 3.7-4 7.2-6.5 10.5l-1 6c-3.7 5-5.3 10.7-5 17l-6 18c-.2 3.3-.7 6.4-1.5 9.5l1 1c-3.2 7.6-5.7 15.4-7.5 23.5l-1 9a6.8 6.8 0 0 1-1.5 3l-2-4a446.2 446.2 0 0 1 28-108l2-2c0 1 .5 1.7 1.5 2 3.3-3.3 5-7.3 5-12 3.8-4 6.3-8.7 7.5-14Z"/><path style="opacity:1" fill="#020000" d="M361.5 381.5a52 52 0 0 1 47 18 29 29 0 0 0 6.5 9c.4 4.4 1.7 8.4 4 12 2.8 22.4-4.9 40-23 53-3.5 1.5-7 3.2-10.5 5a56.6 56.6 0 0 1-47-9 48 48 0 0 1-16.5-48c1.8-6 4-12 6.5-18 9-10.7 20-18 33-22Z"/><path style="opacity:1" fill="#030101" d="M482.5 382.5c6.4 0 12.7.3 19 1 5.7 3.1 11.4 6.6 17 10.5 22 24 22.6 48.4 2 73.5a138 138 0 0 1-17 12c-3.5-.3-6.9 0-10 1a59.6 59.6 0 0 1-35-7c-24.6-21-28.3-45.4-11-73a60 60 0 0 1 35-18Z"/><path style="opacity:1" fill="#040101" d="M640.5 462.5a51.2 51.2 0 0 1-17 14.5c-6.6 1.8-13.1 4-19.5 6.5-7.3-1.1-14.4-2.6-21.5-4.5a54.3 54.3 0 0 1-30.5-37.5c-1-13.5 2-26.2 8.5-38 3-3.6 6.6-6.6 10.5-9 .5-1 .6-2 .5-3 3.8.5 6.4-.8 8-4 4.3.5 8-.6 11-3.5 19.3-3 35.6 2.6 49 16.5a51.4 51.4 0 0 1 1 62Z"/><path style="opacity:1" fill="#fefdfc" d="M364.5 387.5c4.4-.3 8.7 0 13 1a175 175 0 0 1 18 7c-.1 1 0 2 .5 3 4.2 1.7 6.7 4.7 7.5 9h4c-.1 3.8 1 7.1 3.5 10a50 50 0 0 1-8.5 42 6.5 6.5 0 0 0-3 3 4.9 4.9 0 0 1-4 1v4c-3.8-.1-7.1 1-10 3.5-4.8 1-9.6 1.7-14.5 2.5-5.4-1-11-1.8-16.5-2.5-4.8-3-9.8-5.5-15-7.5.3-1.5 0-2.8-1-4-1.7-1-3-2.3-4-4a49.2 49.2 0 0 1-6-36c2.2-3 3.5-6.3 4-10a50.3 50.3 0 0 1 18-17.5c5-.7 9.7-2.2 14-4.5Z"/><path style="opacity:1" fill="#fdfcfc" d="M478.5 389.5c4.8 0 9.8.1 15 .5 3.2 1 6.5 2 10 2.5 5.2 4 10.5 7.7 16 11 2.5 3.5 4.1 7.5 5 12 1 .5 1.8 1.1 2.5 2 .7 9.3.7 18.7 0 28-3 2.7-4.1 6-3.5 10h-4c.3 1.5 0 2.8-1 4a44 44 0 0 1-38 14.5c-7.3-1.6-14.3-3.8-21-6.5v-4h-4v-4h-4c-2.6-5.1-5-10.4-7-16a61 61 0 0 1 0-22c3-7.9 6.6-15.2 11-22 1.5.3 2.8 0 4-1l8-6c3.3-.8 6.6-1.3 10-1.5.6-.4.9-.9 1-1.5Z"/><path style="opacity:1" fill="#fefefd" d="M598.5 390.5a43.9 43.9 0 0 1 40 21 55 55 0 0 1 4.5 31c-2 6-5 11.4-8.5 16.5a5 5 0 0 1-3 .5c.3 1.5 0 2.8-1 4-24.5 18.2-46.5 15.5-66-8-4-6.6-6-13.8-6-21.5.6-5.2 1.1-10.3 1.5-15.5 2.7-5 5.2-10 7.5-15h4v-4a66 66 0 0 1 12-5c.5-1 1.1-1.8 2-2.5a83 83 0 0 0 13-1.5Z"/><path style="opacity:1" fill="#080101" d="M333.5 437.5c.7-1.7 2-2.3 4-2-.3 2 .3 3.3 2 4l4 12h4v4c5.1 2.6 10.4 5.1 16 7.5a34.5 34.5 0 0 0 31-11.5c4-6.2 7-12.8 9-20-1.6-9-5.3-17-11-24a37 37 0 0 0-41-3 32.3 32.3 0 0 0-12 19 11.5 11.5 0 0 1-6 2c1.6-6.1 3.6-12.1 6-18h4c-.3-1.5 0-2.8 1-4 21.6-15.2 41-12.5 58 8 .6 4.4 2 8.4 4.5 12 .7 5.3.7 10.7 0 16a19.5 19.5 0 0 0-4 11c-1 .8-2.2 1.2-3.5 1 .3 1.5 0 2.8-1 4a6.5 6.5 0 0 0-3 3 4.9 4.9 0 0 1-4 1v4c-3.6-.3-6.6.9-9 3.5-8 .7-16 .7-24 0-5-2.7-10-5.2-15-7.5v-4c-1.3.2-2.5-.2-3.5-1-3-5.4-5.2-11-6.5-17Z"/><path style="opacity:1" fill="#070101" d="M449.5 433.5c.6-2.6 1.4-2.6 2.5 0l1-4c.2 2.9.7 5.5 1.5 8s1.3 5.1 1.5 8c3.7 4.4 7.5 8.8 11.5 13 9.4 5 19.4 6.4 30 4a94 94 0 0 1 11-7c1.5-3 3.5-5.7 6-8a92 92 0 0 0 4-16c-1-7.4-3.7-14.1-8-20-1.7-2.2-4-4-6.5-5a5 5 0 0 1-.5-3c-5.8-2-11.8-3.2-18-4-4.2-.2-7.9 1-11 3.5a25 25 0 0 1-7 .5c.1 1 0 2-.5 3a26 26 0 0 0-11.5 18c-1.5 1.2-2.8 1.2-4 0-.3-3 0-6 1-9 2-2.3 3-5 3-8h4v-4c5-2.3 10-4.8 15-7.5 8-.7 16-.7 24 0 2.4 2.6 5.4 3.8 9 3.5v4h4v4h4c2.3 5 4.8 10 7.5 15 .7 6 .7 12 0 18-2.9 3.1-4 6.8-3.5 11-1-.1-2 0-3 .5a37.2 37.2 0 0 1-17 15c-9.4.8-18.7.7-28-.5a8.8 8.8 0 0 0-8-3v-4h-4v-4h-4a52 52 0 0 1-5.5-15 25 25 0 0 1-.5-7Z"/><path style="opacity:1" fill="#0a0201" d="M635.5 422.5v3h-4a28 28 0 0 0-16-21.5 54 54 0 0 0-14-3.5c-5.8 2-11.8 3-18 3 .1 1 0 2-.5 3a24 24 0 0 0-10.5 11c-.7 4.1-1.7 8.1-3 12-.6.1-1.1.4-1.5 1l-1.5 9h-3a52.9 52.9 0 0 1 9-31 3 3 0 0 1 3-1v-4c5.6-2.6 11.2-5 17-7.5 6.4-.8 12.7-.7 19 .5a92.9 92.9 0 0 1 19 12c.8 1.6 1.3 3.2 1.5 5 3 2.2 4 5.2 3.5 9Z"/><path style="opacity:1" fill="#fffdfd" d="M339.5 439.5c.3-2.7-.3-5-2-7 .8-3 1.4-6 2-9 1.7-7.7 5.7-14 12-19a37 37 0 0 1 41 3c5.7 7 9.4 15 11 24-2 7.2-5 13.8-9 20a34.5 34.5 0 0 1-31 11.5c-5.6-2.4-10.9-4.9-16-7.5v-4h-4l-4-12Z"/><path style="opacity:1" fill="#fefcfc" d="M454.5 437.5c-.2-4.4.1-8.7 1-13a26 26 0 0 1 11.5-18c.5-1 .6-2 .5-3 2.4.2 4.7 0 7-.5 3.1-2.5 6.8-3.7 11-3.5 6.2.8 12.2 2 18 4-.1 1 0 2 .5 3 2.6 1 4.8 2.8 6.5 5 4.3 5.9 7 12.6 8 20a92 92 0 0 1-4 16c-2.5 2.3-4.5 5-6 8a94 94 0 0 0-11 7 42.2 42.2 0 0 1-30-4c-4-4.2-7.8-8.6-11.5-13-.2-2.9-.7-5.5-1.5-8Z"/><path style="opacity:1" fill="#fefdfc" d="M631.5 425.5v12c.3 3 0 6-1 9a23.6 23.6 0 0 0-6 8.5l-11 7.5a85 85 0 0 1-26 0c-5-3-9.3-6.6-13-11-1.9-4-3.6-8-5-12-1-3.4-1-6.7 0-10 1.3-3.9 2.3-7.9 3-12a24 24 0 0 1 10.5-11c.5-1 .6-2 .5-3 6.2 0 12.2-1 18-3a54 54 0 0 1 14 3.5 28 28 0 0 1 16 21.5Z"/><path style="opacity:1" fill="#4c0804" d="M710.5 222.5c2.9.4 5.2 1.7 7 4 6.6 11 13.8 21.6 21.5 32a96.4 96.4 0 0 0 8 15 60 60 0 0 0 4.5 13c-.3 3-.3 6 0 9 1.3-.2 2.5.2 3.5 1-.3 3.6 1 6.3 4 8 .5 2.6.7 5.3.5 8 1-.1 2 0 3 .5-.2 4.5 1.2 8.9 4 13a4 4 0 0 0-1 2c.6 3.5 1.2 7 2 10.5 9.3 16.3 14.8 34 16.5 53 3 6.2 4.2 12.5 3.5 19a21 21 0 0 0 2.5 6c.6 8.7 1.2 17.3 2 26 0 2.5.8 5 2.5 7.5-2 5-3.9 10.2-5.5 15.5-.2 6.9-1 13.6-2.5 20 .3-7 0-14-1-21a2385 2385 0 0 1-39-3c11.7.4 23.3.6 35 .5a62.3 62.3 0 0 0-4-6.5h9c-3-61-17.4-119-43.5-174-7.4-11.9-14.6-23.9-21.5-36-4.2-6.6-8.2-13.2-12-20 0-1.1.4-2.1 1-3Z"/><path style="opacity:1" fill="#fefbc3" d="M501.5 383.5c4 .2 8 .7 12 1.5a96.3 96.3 0 0 1 25.5 30.5l.5 12c-.5 6-.5 12 0 18a9.3 9.3 0 0 1-3.5 6l-1 6c-6.9 6.9-14 13.4-21.5 19.5a24.1 24.1 0 0 1-10 2.5 138 138 0 0 0 17-12c20.6-25 20-49.6-2-73.5-5.6-3.9-11.3-7.4-17-10.5Z"/><path style="opacity:1" fill="#fefdfd" d="M579.5 439.5v-16c2.8-2.1 5.1-4.8 7-8a30.3 30.3 0 0 1 21-3.5c4.3 2.3 8.3 4.8 12 7.5.3 4.5 1.7 8.7 4 12.5a39.7 39.7 0 0 1-10 19c-4.6 1.2-9 2.7-13.5 4.5l-13.5-6-7-10Z"/><path style="opacity:1" fill="#fefcae" d="M294.5 373.5c1.7 7.2 2.9 14.5 3.5 22 .7 29 .7 58 0 87-.4 10.9-1.3 21.5-2.5 32a1454 1454 0 0 1-2-101c-.3-13.5 0-26.8 1-40Z"/><path style="opacity:1" fill="#fcf9e3" d="M212.5 255.5c-4.3 9.4-8.2 19-11.5 29l-3 3a133 133 0 0 1-6.5 20h-3v4h3a446.2 446.2 0 0 0-28 108c-.5 7.3-.9 14.7-1 22 0 .4-.1.8-.5 1-3-3.9-6.2-7.5-9.5-11a49.6 49.6 0 0 0-57-5.5c-27 21.7-33.2 48.2-18.5 79.5 18.4 23.4 40.9 28.3 67.5 14.5 5.8-4 11.1-8.5 16-13.5h1v9h-6v3c-1-.1-2 0-3 .5a29.7 29.7 0 0 1-8 7c-4.6 1-9 2.6-13 5a75.7 75.7 0 0 1-20 1A51 51 0 0 1 73 509.5c-2.1-7-4.8-13.6-8-20-4-33.2 8.5-57.7 37.5-73.5a52 52 0 0 1 50 10c1.7.7 3.3.7 5 0-1.3-2.8-.8-5.3 1.5-7.5l1-19c4-15 7.3-30.4 10-46 3-4.5 4.8-9.5 5-15 2.9-9.2 6.2-18.2 10-27 5-11.5 10.7-22.8 17-34a48.3 48.3 0 0 1 10.5-22Z"/><path style="opacity:1" fill="#3f0000" d="M599.5 417.5a18 18 0 0 1 14 7c-1 1-2.4 1.3-4 1-2.3-3.4-5.6-4.8-10-4v-4Z"/><path style="opacity:1" fill="#fbf8e4" d="M788.5 568.5c3.3-17.2 6-34.6 8-52 2.2 2 4.5 3.6 7 5a37.8 37.8 0 0 0 17 10 51 51 0 0 0 31 2.5 12 12 0 0 0 4-2.5c3-.8 5.7-2.2 8-4 8.8-4.6 15-11.6 18.5-21 9.5-27 3.6-50-17.5-69.5-4.2-3.3-9-5.8-14-7.5a37.8 37.8 0 0 0-22-2 48.8 48.8 0 0 0-30 17c-.7-.4-1.2-1-1.5-2a422.8 422.8 0 0 0-24-116l-28-64c-9.1-16.6-20-32-32.5-46 3.3-10.2 6.8-20.2 10.5-30 .7-5 .7-10 0-15l-2.5-2.5a145 145 0 0 0-17-.5 8.8 8.8 0 0 0-4-1.5 92.7 92.7 0 0 1 16.5-2.5c7.4-.4 12 3 13.5 10-1.9 13-5 25.6-9.5 38a6.5 6.5 0 0 0 0 5 324 324 0 0 1 15 19c3.6 6.6 7.6 13 12 19 10.5 23 20.8 46 31 69l3 12c2.4 3.3 4 7 5 11 3.6 17.2 8 34.2 13 51 .4 9 1 18 2 27a6.4 6.4 0 0 0 4.5 4 90 90 0 0 0 12-5.5c6.1-1 12.1-2 18-3.5a62 62 0 0 1 37.5 17c4.8 5.6 9.1 11.6 13 18a62.6 62.6 0 0 1 5.5 26.5 168 168 0 0 1-4.5 27.5 55.7 55.7 0 0 1-48 31c-10.6 0-20-3.3-28.5-9.5a20 20 0 0 1-8-2.5c-.5 3.3-1.7 6.3-3.5 9-.5 16.2-3.8 32-10 47l-.5-1.5v-14.5Z"/><path style="opacity:1" fill="#0e0202" d="M482.5 405.5c5.5 0 10.8.8 16 2.5.8 1 1.2 2.2 1 3.5h4v4h4c.4 2.8 1.4 5.5 3 8 3.2 19.2-4.8 30.9-24 35-16.1-1.6-25.1-10.5-27-26.5a342 342 0 0 1 4-16.5c4-1 7.4-3.4 10-7 3.3-.5 6.3-1.5 9-3Z"/><path style="opacity:1" fill="#fefdfd" d="M483.5 409.5c18.3 2 26 12 23 30-5 10.6-13.4 15-25 13.5-5-1.2-9.6-3-14-5.5.1-3-.9-5.8-3-8a33.2 33.2 0 0 1-.5-14l6.5-10c4.1-2.7 8.4-4.7 13-6Z"/><path style="opacity:1" fill="#960c03" d="M599.5 421.5c4.4-.8 7.7.6 10 4 .8.9 1.8 1.6 3 2l1 3c-1 3-1.6 6-2 9-3.6.3-4.9 2.3-4 6a150 150 0 0 1-16-2 29.8 29.8 0 0 1 .5-16c1.9-2.8 4.4-4.8 7.5-6Z"/><path style="opacity:1" fill="#9a5f5a" d="M828.5 427.5c7.5-1.5 14.8-.9 22 2-7.3-1.3-14.6-2-22-2Z"/><path style="opacity:1" fill="#3e1819" d="M451.5 424.5c1.2 1.2 2.5 1.2 4 0-.9 4.3-1.2 8.6-1 13-.8-2.5-1.3-5.1-1.5-8l-1 4c-1-2.6-1.9-2.6-2.5 0-.6-.4-1-1-1-2 .3-2.8 1.3-5.1 3-7Z"/><path style="opacity:1" fill="#270805" d="M828.5 427.5c7.4 0 14.7.7 22 2 5 1.7 9.8 4.2 14 7.5a60.2 60.2 0 0 1 17.5 69.5 38.3 38.3 0 0 1-18.5 21c-2.7.2-5-.7-7-2.5 2-1.1 4-2 6-2.5a7 7 0 0 1 1-4 50.4 50.4 0 0 0-8-78.5c-20.4-10-38.4-6.8-54 9.5-3-.9-4-2.5-3-5 7.8-9.2 17.8-15 30-17Z"/><path style="opacity:1" fill="#2b0704" d="M152.5 431.5c1.2 2 2.2 4.2 3 6.5l-1 2.5c-1-.6-2-1-3-1a39 39 0 0 0-19-11c-4.7-3-9.7-3.6-15-2a48.3 48.3 0 0 0-39.5 40c-3 22 4.8 38.8 23.5 50.5a54.4 54.4 0 0 0 51-9.5c2.4-1.8 5.1-3.1 8-4v3c-4.9 5-10.2 9.5-16 13.5-26.6 13.8-49.1 9-67.5-14.5-14.7-31.3-8.5-57.8 18.5-79.5a49.6 49.6 0 0 1 57 5.5Z"/><path style="opacity:1" fill="#81452e" d="M117.5 426.5c5.3-1.6 10.3-1 15 2-4.9-1.4-9.9-2-15-2Z"/><path style="opacity:1" fill="#300803" d="M339.5 423.5c-.6 3-1.2 6-2 9 1.7 2 2.3 4.3 2 7-1.7-.7-2.3-2-2-4-2-.3-3.3.3-4 2-2.5-4-2.5-8 0-12 2.2-.1 4.2-.8 6-2Z"/><path style="opacity:1" fill="#350909" d="M635.5 422.5c4.9 7 4.9 14 0 21 .1-3-1.2-5-4-6v-12h4v-3Z"/><path style="opacity:1" fill="#fef9b2" d="M585.5 374.5c2.2.9 4.5 1.2 7 1 .8.8 1.8 1.3 3 1.5 7 .5 14 .7 21 .5l-1 2a67.7 67.7 0 0 1 27.5 18c2.3 4 5 7.6 8 11 4.2 12.3 5.6 25 4 38a1742 1742 0 0 1-7 10c-.8 5-3.3 8.6-7.5 11-1-1.5-1-3.2 0-5a51.4 51.4 0 0 0-1-62 53.2 53.2 0 0 0-49-16.5c-3 2.9-6.7 4-11 3.5-.7-1.7-2-2.3-4-2 .4-.7 1-1.2 2-1.5 3.3-.5 6.6-.7 10-.5v-4c-3.5.2-6.2-1-8-4 2.2.3 4.2 0 6-1Z"/><path style="opacity:1" fill="#3e040a" d="M576.5 423.5h3v16c-.7-.1-1.4 0-2 .5.7 1 .7 2.2 0 3.5-1.5-1-2.2-2.5-2-4.5.1-5.3.4-10.5 1-15.5Z"/><path style="opacity:1" fill="#380908" d="M569.5 429.5c-1 3.3-1 6.6 0 10a9.2 9.2 0 0 0-2 8l-4-8h3l1.5-9c.4-.6.9-.9 1.5-1Z"/><path style="opacity:1" fill="#040000" d="M631.5 437.5c2.8 1 4.1 3 4 6-5 17.2-16.5 25.8-34.5 26-5.8-1-11.6-1.7-17.5-2v-4c-2.8-.4-5.5-1.4-8-3a98.4 98.4 0 0 1-7-9 4.9 4.9 0 0 1-1-4c-.5-3.2.1-5.9 2-8 1.4 4 3.1 8 5 12 3.7 4.4 8 8 13 11a85 85 0 0 0 26 0l11-7.5c1.4-3.3 3.4-6.2 6-8.5 1-3 1.3-6 1-9Z"/><path style="opacity:1" fill="#120302" d="M366.5 403.5c2.4-.3 4.8 0 7 1 21.2 8 27.2 22.3 18 43h-4v4c-5.6 3-11.6 5-18 6-6.4-1-12.4-3-18-6v-4h-4c0-3-1-5.7-3-8a29.2 29.2 0 0 1 13-31.5 11 11 0 0 0 9-4.5Z"/><path style="opacity:1" fill="#fefefd" d="M365.5 409.5h10c13 5.8 18 15.8 15 30a72 72 0 0 0-7 9c-4.4 2-9 3-14 3-13-.2-20.4-6.9-22-20 1-11.6 7-19 18-22Z"/><path style="opacity:1" fill="#3a0200" d="M383.5 427.5c1.2.8 2 2.2 2 4 0 1.8-.8 3.2-2 4v-8Z"/><path style="opacity:1" fill="#710000" d="M375.5 417.5c-2.7-.3-5.4 0-8 1a5.7 5.7 0 0 0-2 5c-4.9.8-6.9 3.8-6 9 .4 4 1 7.7 2 11-2-1-3.6-2.2-5-4-4.4-13.6.3-21.6 14-24 2.1 0 3.8.7 5 2Z"/><path style="opacity:1" fill="#8c0601" d="M375.5 417.5c5.5 1 8.2 4.3 8 10v8c.1 2.2-.4 4.2-1.5 6-6.4 6.9-13.2 7.6-20.5 2-1-3.3-1.6-7-2-11-.9-5.2 1.1-8.2 6-9-.2-2 .5-3.7 2-5 2.6-1 5.3-1.3 8-1Z"/><path style="opacity:1" fill="#51010b" d="M375.5 409.5h-10c1.2-1.3 2.9-2 5-2s3.8.7 5 2Z"/><path style="opacity:1" fill="#6d0102" d="M484.5 415.5c14 3.1 18.8 11.5 14.5 25-6.2 7.5-13.7 9-22.5 4.5-6.4-6.7-7.4-14.2-3-22.5 3.6-2.5 7.3-4.9 11-7Z"/><path style="opacity:1" fill="#9c1105" d="M484.5 420.5c1.5-.3 2.8 0 4 1 2.3 2.9 4.8 5.6 7.5 8 0 9.6-4.8 13.4-14.5 11.5-2-2.3-4.3-4.1-7-5.5-1.1-2-1.3-4-.5-6 3.7-3 7.2-6 10.5-9Z"/><path style="opacity:1" fill="#710102" d="M599.5 417.5v4a15.5 15.5 0 0 0-7.5 6 29.8 29.8 0 0 0-.5 16 150 150 0 0 0 16 2c-.9-3.7.4-5.7 4-6 .4-3 1-6 2-9l-1-3a6.9 6.9 0 0 1-3-2c1.6.3 3 0 4-1 .6.1 1.1.4 1.5 1 2.9 18.1-4.6 25.3-22.5 21.5-9.4-9.2-9.3-18.4.5-27.5 2.2-.8 4.3-1.4 6.5-2Z"/><path style="opacity:1" fill="#290302" d="M282.5 428.5a85 85 0 0 1 0 26c-2.3.7-4.6 1-7 1-21.3.3-42.7 0-64-1 1.2-.8 2.6-1.3 4-1.5a2340 2340 0 0 1 67-3.5v-21Z"/><path style="opacity:1" fill="#150302" d="M577.5 443.5c.7-1.3.7-2.5 0-3.5.6-.5 1.3-.6 2-.5l7 10 13.5 6c4.4-1.8 9-3.3 13.5-4.5a39.7 39.7 0 0 0 10-19c-2.3-3.8-3.7-8-4-12.5-3.7-2.7-7.7-5.2-12-7.5a30.3 30.3 0 0 0-21 3.5 28.3 28.3 0 0 1-7 8h-3c.5-2.4 1.7-4.4 3.5-6 3-3.2 6.2-6.2 9.5-9a30 30 0 0 1 33.5 10c6.8 11.6 5.7 22.2-3.5 32a4.9 4.9 0 0 1-4 1v4c-13.7 6.6-25.7 4.2-36-7a16 16 0 0 1-2-5Z"/><path style="opacity:1" fill="#3b0406" d="M240.5 451.5c-8.2.8-16.5 1.3-25 1.5-1.4.2-2.8.7-4 1.5 21.3 1 42.7 1.3 64 1v1c-32.3.1-64.7.8-97 2-.7-.9-1.7-1.2-3-1v-4c3.5.3 6.9 0 10-1 18.3-1 36.6-1.3 55-1Z"/><path style="opacity:1" fill="#400202" d="M681.5 450.5c23.3.7 46.7 1.6 70 2.5l26 2.5c1.4 2 2.8 4.2 4 6.5-11.7 0-23.3-.1-35-.5l-61.5-4c-1.6.1-3 .4-4.5 1-.3-2.9 0-5.6 1-8Z"/><path style="opacity:1" fill="#cd9865" d="M282.5 454.5v2h-7v-1c2.4 0 4.7-.3 7-1Z"/><path style="opacity:1" fill="#ebd985" d="m213.5 638.5-5-8-1-4c2 1.7 3.6 3.7 5 6 1.4-.5 2-1.5 2-3a432 432 0 0 1-22.5-55c-4.3-19-8.3-38.4-12-58-.5-18-.7-36-.5-54 32.6.8 65 1.1 97.5 1-1.6 30.8-4 61.4-7 92-4.8 26.2-9.4 52.6-14 79a158 158 0 0 0-8.5 42c-1 .1-2 0-3-.5a7.5 7.5 0 0 0-4.5-4.5c-8-13.1-16.4-25.8-25.5-38a7.1 7.1 0 0 0-1 5Z"/><path style="opacity:1" fill="#3b0505" d="M712.5 216.5c12.5 14 23.4 29.4 32.5 46l28 64a422.8 422.8 0 0 1 24 116c.3 1 .8 1.6 1.5 2-1 2.5 0 4.1 3 5-.6 1.1-1.5 2.1-2.5 3a2414 2414 0 0 0-1 58c3 .5 4.8 2.1 5.5 5a7.1 7.1 0 0 0 0 6c-2.5-1.4-4.8-3-7-5-2 17.4-4.7 34.8-8 52-2.2 5.4-4 11-5 17a419.3 419.3 0 0 1-11.5 33c-5.7 10.5-11 21.1-16 32a364 364 0 0 1-14.5 22c-.7-2.3-2-2.7-4-1a71.6 71.6 0 0 1 15.5-23c1-5.6 3.3-10.6 7-15 .5-3 1.2-6 2-9 2-2.7 3.5-5.7 4.5-9 1 0 1.8-.2 2.5-1 .6-2.8 1.9-5.1 4-7v-9c6-7.2 8.7-15.5 8-25 1-.8 1.6-1.8 2-3 .1-5.7 1.4-11 4-16 .8-3.7.7-7.4-.5-11-.6.2-1 .5-1.5 1 .3 5-1.2 9.4-4.5 13-1-2.6-1.3-5.3-1-8 3.8-21.2 6.1-42.5 7-64 1.5-6.4 2.3-13.1 2.5-20 1.6-5.3 3.5-10.5 5.5-15.5-1.7-2.5-2.5-5-2.5-7.5-.8-8.7-1.4-17.3-2-26a21 21 0 0 1-2.5-6c.7-6.5-.5-12.8-3.5-19-1.7-19-7.2-36.7-16.5-53-.8-3.5-1.4-7-2-10.5a4 4 0 0 1 1-2 21.3 21.3 0 0 1-4-13 5 5 0 0 0-3-.5c.2-2.7 0-5.4-.5-8-3-1.7-4.3-4.4-4-8-1-.8-2.2-1.2-3.5-1-.3-3-.3-6 0-9a60 60 0 0 1-4.5-13 96.4 96.4 0 0 1-8-15c-7.7-10.4-14.9-21-21.5-32a10.1 10.1 0 0 0-7-4c1.2-1.8 1.9-3.8 2-6Z"/><path style="opacity:1" fill="#7d3e26" d="M160.5 450.5c.8 13.8 1.4 27.8 2 42 0 1.9-.3 3.5-1 5-1-15.7-1.4-31.4-1-47Z"/><path style="opacity:1" fill="#fcf6a3" d="M117.5 426.5c5.1 0 10.1.6 15 2a39 39 0 0 1 19 11c3.4 3.4 6.4 7 9 11-.4 15.6 0 31.3 1 47l-9 10a54.4 54.4 0 0 1-51 9.5A47.3 47.3 0 0 1 78 466.5a48.3 48.3 0 0 1 39.5-40Z"/><path style="opacity:1" fill="#ebd985" d="M114.5 431.5a43 43 0 0 1 37.5 15c1.8 2.7 2.8 5.7 3 9 1.5 13.6 1.8 27.3 1 41a55.8 55.8 0 0 1-44.5 17.5A35.6 35.6 0 0 1 84 485.5 49 49 0 0 1 98.5 440c5-3.6 10.4-6.4 16-8.5Z"/><path style="opacity:1" fill="#f7e99c" d="m673.5 394.5-1.5 17c-.7 41.7-.7 83.3 0 125 2 24.1 4.9 48.1 8.5 72 0 3.9.3 7.7 1 11.5a6 6 0 0 1-2 4c2.5 2 2.4 3-.5 2.5a558.5 558.5 0 0 1-8-55 9.9 9.9 0 0 0-2-5c-.8-15-2-30-3.5-45 .5-2.1.8-4.3 1-6.5a75.7 75.7 0 0 1-1-36 64.1 64.1 0 0 1 1-27.5 33.4 33.4 0 0 1-2-13c2-16.9 3.4-33.9 4-51 1.5-4.6 2.6-9.2 3.5-14a9.4 9.4 0 0 1 2.5 6c-.8 5-1.2 10-1 15Z"/><path style="opacity:1" fill="#030101" d="M615.5 491.5c15 4 25.4 13.4 31 28 8.6 27.3 1 48.4-23 63.5-3.6.3-7 1.5-10 3.5a88.7 88.7 0 0 1-23 .5c-3.4-2-7-3.1-11-3.5-25.6-15.8-33.3-37.8-23-66a54.6 54.6 0 0 1 43-29c4.6.6 9.3 1.1 14 1.5.5.7 1.2 1.2 2 1.5Z"/><path style="opacity:1" fill="#fefdfc" d="M589.5 495.5c8-.3 16 0 24 1 4.6 2.5 9.3 4.9 14 7v4h4v4h4l7.5 16c.7 7.3.7 14.7 0 22-10.3 25-28.8 34.8-55.5 29.5a170 170 0 0 0-16-7.5v-4h-4l-7-14c-5-18.7-.8-35 13-49 2.3-.8 4.3-2.2 6-4 4.2-.2 7.5-1.9 10-5Z"/><path style="opacity:1" fill="#fefbc0" d="M575.5 385.5c2-.3 3.3.3 4 2-1.6 3.2-4.2 4.5-8 4 .1 1 0 2-.5 3-4 2.4-7.4 5.4-10.5 9a67.2 67.2 0 0 0-8.5 38 54.3 54.3 0 0 0 30.5 37.5c7 1.9 14.2 3.4 21.5 4.5 6.4-2.5 12.9-4.7 19.5-6.5a51.2 51.2 0 0 0 17-14.5c-1 1.8-1 3.5 0 5a50 50 0 0 1-13 13.5c-3.6 1-7.3 1.8-11 2.5a4.9 4.9 0 0 0-1 4v4c-.8-.3-1.5-.8-2-1.5-4.7-.4-9.4-.9-14-1.5a54.6 54.6 0 0 0-43 29c-10.3 28.2-2.6 50.2 23 66 0 1.3-.7 2-2 2-2.2.1-4.2-.4-6-1.5a54.7 54.7 0 0 1-23.5-52.5c1.8-5.2 3-10.5 4-16 2.1-4.7 4.8-9 8-13 2.7-3.7 6.2-6.2 10.5-7.5a27 27 0 0 1 16-8.5c.2-1.3-.2-2.5-1-3.5-2.7-.2-5.4-.7-8-1.5a5540 5540 0 0 1-11-6.5 53.1 53.1 0 0 1-18.5-35.5 50.6 50.6 0 0 1 27.5-54Z"/><path style="opacity:1" fill="#fefabc" d="M482.5 382.5a60 60 0 0 0-35 18c-17.3 27.6-13.6 52 11 73a59.6 59.6 0 0 0 35 7c1.5-.3 2.8 0 4 1-.2.6-.5 1-1 1.5 6.8 3.2 13.8 6.2 21 9 .7 1 1.2 2.2 1.5 3.5a50 50 0 0 1 18 59 8.6 8.6 0 0 0-2.5 8c-3.6 4.5-7.1 9.1-10.5 14a44.5 44.5 0 0 1-27.5 13.5c-6 .7-12 .7-18 0-4.8-2-9.8-3-15-3-3.4-2.4-7-4.4-11-6-3.7-4-7.6-7.8-11.5-11.5a107 107 0 0 0-7-15 82.5 82.5 0 0 1-2.5-19c3-9.4 5.2-19 6.5-29 3.7-4 8.2-6.3 13.5-7-.1-1 0-2 .5-3 2.3-2.1 4.8-3.8 7.5-5 4.2-2 7.8-4.6 11-8-2-.7-3.6-1.9-5-3.5l-7-1c-10-8-18.2-17.5-24.5-28.5a58.6 58.6 0 0 1 2-39 44.3 44.3 0 0 1 30.5-28 9.1 9.1 0 0 1 7-5c-.2-.6-.5-1-1-1.5l-9-1a39.4 39.4 0 0 0-6-4.5c-1 .2-2 .5-3 1a30 30 0 0 1-5-7.5c-2-.4-3.9-1.3-5.5-2.5-2.8-5.7-6.2-11-10-16-2.4-8.8-3-17.8-2-27l6-18c18.9-28.6 44-36 75.5-22.5a55 55 0 0 1 25.5 58.5c-6.4 24.9-22.2 38.2-47.5 40v4c-3.2-.3-6.2 0-9 1Z"/><path style="opacity:1" fill="#030101" d="M479.5 487.5c29.1-.5 47.6 13.1 55.5 41 2.2 20.8-5 37.7-21.5 50.5a63.7 63.7 0 0 1-33 8c-29.4-6.4-44-24.6-43.5-54.5a68 68 0 0 1 11.5-27l7-7c7.6-4.7 15.6-8.4 24-11Z"/><path style="opacity:1" fill="#fefdfc" d="M471.5 495.5c19-3.9 35 1.1 48 15 10.7 18 10.7 36 0 54a44 44 0 0 1-45 14.5 72.3 72.3 0 0 1-18-10c-2-2.8-3.8-5.6-5.5-8.5-1-.8-2.2-1.2-3.5-1 0-3.6-1-7-3-10a81.2 81.2 0 0 1-.5-22c2.7-3.5 3.9-7.5 3.5-12h4c-.1-2.5.6-4.9 2-7a146 146 0 0 1 18-13Z"/><path style="opacity:1" fill="#0a0101" d="M492.5 573.5a6 6 0 0 1-5-2c1.7-.6 3-1.6 4-3 5.4-1 10.8-2.7 16-5v-4h4c1.7-5 3.5-10 5.5-15 .3-3 .8-6 1.5-9a139 139 0 0 0-7-20h-4v-4c-6.6-3-13.6-5-21-6-10.6 0-19.3 4-26 12-.8 2.3-2.2 4.3-4 6a624.4 624.4 0 0 1-3 15c0 2.1.7 3.8 2 5 2.4 14.7 11 23 26 25 1.5 1.3 2.1 3 2 5h-3a111 111 0 0 0-13-3c-2.8-3-6-5.8-9.5-8-1-2.2-2.3-4.4-3.5-6.5a5 5 0 0 0-3-.5c0-6-1-11.8-3-17.5 1.6-5.4 3-11 4-16.5 2.5-3.4 4.8-7 7-10.5 2.4-1.9 5-3 8-3.5v-4c6.2-1.6 12.6-3 19-4 26.8 4 39 19.7 36.5 47a162 162 0 0 1-8 15 39.3 39.3 0 0 1-22.5 12Z"/><path style="opacity:1" fill="#030101" d="M480.5 276.5c29-.5 47.2 13.2 54.5 41 2.4 29.5-10.4 48.6-38.5 57.5a56 56 0 0 1-44-11.5 4.9 4.9 0 0 1-1-4h-4c-2.2-4.8-4.7-9.4-7.5-14-3-8-4-16.4-3-25 2.5-12.1 8-22.6 16.5-31.5 8.3-6 17.3-10 27-12.5Z"/><path style="opacity:1" fill="#fefdfd" d="M473.5 283.5c7.7-.2 15.3 0 23 .5 3.1 2.9 6.8 4 11 3.5v4c3.8.9 7 2.9 9.5 6 1.8 2.5 3.8 4.9 6 7a9.2 9.2 0 0 0 3.5 7c1.2 9.3 1.3 18.6.5 28-2.5 5-5.2 10-8 15-1 .8-2.2 1.2-3.5 1v4c-5.4 2.2-10.8 4.7-16 7.5-26.7 5.2-45.2-4.6-55.5-29.5-.8-7.4-.7-14.7.5-22 2.3-2.9 3.5-6.2 3.5-10 2.8-3 5.1-6.3 7-10 2.7-1.8 5.5-3.1 8.5-4-.2-1.3.2-2.5 1-3.5 2.4-.2 4.7-.7 7-1.5a4.5 4.5 0 0 0 2-3Z"/><path style="opacity:1" fill="#0f0201" d="M479.5 288.5c8-.5 15.7.6 23 3.5a13 13 0 0 0 8 5.5 39.3 39.3 0 0 1 12 38c-2 5.6-4.4 10.9-7 16-2.8-.2-4.5 1.2-5 4a40.5 40.5 0 0 1-49-.5 49.8 49.8 0 0 1-9-11.5c-.9-5.6-2.2-11.1-4-16.5a75 75 0 0 0 4-17.5c3-5 6.6-9.3 11-13 5.2-3.3 10.5-6 16-8Z"/><path style="opacity:1" fill="#a32c2c" d="M455.5 320.5a26.8 26.8 0 0 0 0 14c-.6-.1-1.1-.4-1.5-1-.7-4-.7-8 0-12 .4-.6.9-.9 1.5-1Z"/><path style="opacity:1" fill="#fefbfa" d="M455.5 334.5a26.8 26.8 0 0 1 0-14 25 25 0 0 1 .5-7c2.7-4.7 5.8-9 9.5-13 1.9-1 3.9-1.3 6-1-.2-1.3.2-2.5 1-3.5 9-1.7 18-1.9 27-.5v4c4.8-.2 8.5 1.8 11 6a50.1 50.1 0 0 1 8 21c-1.3 4.6-2.4 9.3-3.5 14a48 48 0 0 1-7 8 5 5 0 0 0-.5 3 205 205 0 0 1-24.5 8 15.8 15.8 0 0 0-5.5-3.5c-6.6-.1-11.2-3-14-8.5h-4c-1.6-4.2-3-8.6-4-13Z"/><path style="opacity:1" fill="#100201" d="M479.5 299.5a33 33 0 0 1 24.5 8c2 3.6 4.4 7 7 10a39 39 0 0 1-4.5 26 41.4 41.4 0 0 1-11 7 50.5 50.5 0 0 1-20 0 10 10 0 0 0-7-3.5c-.8-1-1.2-2.2-1-3.5h-4c.1-3.8-1-7.1-3.5-10-1.6-8.9.4-16.9 6-24 4.3-4 8.8-7.3 13.5-10Z"/><path style="opacity:1" fill="#fffdfc" d="M482.5 303.5a25 25 0 0 1 7 .5c2.8 1.8 5.8 3.1 9 4 .8 1 1.2 2.2 1 3.5h4c.4 3 1.5 5.7 3.5 8 2 8.4.2 15.8-5.5 22a7.2 7.2 0 0 1-6 2v4h-20v-4a13 13 0 0 1-5-.5c-9.4-11.6-9.1-23.1 1-34.5 3.9-1.4 7.5-3.1 11-5Z"/><path style="opacity:1" fill="#670505" d="M495.5 337.5c.1.9-.2 1.5-1 2-8.9 4.6-16.4 2.9-22.5-5-3.5-17.7 3.7-25 21.5-22 7.4 6.5 9.1 14.2 5 23a4.5 4.5 0 0 1-3 2Z"/><path style="opacity:1" fill="#930c02" d="M495.5 337.5c-9.2 3-16.4.3-21.5-8-.5-3.3-.7-6.6-.5-10a7.7 7.7 0 0 0 7-5c5.7-1.9 10.4-.4 14 4.5 1 .5 2 .6 3 .5.3 6.1-.4 12.1-2 18Z"/><path style="opacity:1" fill="#fefcfc" d="M491.5 568.5h-10c-15-2-23.6-10.3-26-25-.8-3.3-1.2-6.6-1-10l2-10c1.8-1.7 3.2-3.7 4-6 6.7-8 15.4-12 26-12 7.4 1 14.4 3 21 6v4h4a139 139 0 0 1 7 20c-.7 3-1.2 6-1.5 9-2 5-3.8 10-5.5 15h-4v4c-5.2 2.3-10.6 4-16 5Z"/><path style="opacity:1" fill="#fefdfc" d="M631.5 531.5v12c-.3 5.7-1.6 11-4 16-1.5-.3-2.8 0-4 1-2.1 2.8-4.8 5-8 6.5-4.8 1.6-9.6 3-14.5 4.5-7.5-2-14.5-5-21-9a5 5 0 0 1-.5-3h-4c-2.9-6.6-5.5-13.4-8-20.5 3-4.7 4.6-9.9 5-15.5 2-4.6 5-8.4 9-11.5a9.3 9.3 0 0 0 6-3.5 85 85 0 0 1 26 0c5 3 9.3 6.6 13 11 1 1.2 1.3 2.5 1 4 1.3-.2 2.5.2 3.5 1 .5 2.3.7 4.6.5 7Z"/><path style="opacity:1" fill="#0b0202" d="M476.5 511.5c6.4-.3 12.7 0 19 1 1.7 1.8 3.7 3.2 6 4a41 41 0 0 1 9 11c1.2 6 1.3 12 .5 18a13.8 13.8 0 0 0-4 8c-14.1 13.3-28.3 13.3-42.5 0-7.6-13-6.3-25 4-36 3.7-.8 6.4-2.8 8-6Z"/><path style="opacity:1" fill="#fefdfc" d="M478.5 515.5a26.2 26.2 0 0 1 28 14c3 13.8-2 23.4-15 29l-6 1c-4.9-.8-9.5-2.1-14-4 .3-3-1-4.3-4-4 0-2.5-1-4.5-3-6-2-8-.7-15.4 4-22 3.3-2.8 6.6-5.5 10-8Z"/><path style="opacity:1" fill="#0b0101" d="M575.5 539.5c3.3 0 4 1.3 2 4 .2 1.2 1 1.9 2 2 2 2.4 3.7 5 5 8a27.6 27.6 0 0 0 25 5c1.5-2 3.5-3 6-3v-4h4c6.6-19 .2-31-19-36a45.8 45.8 0 0 1-11 3.5 33.7 33.7 0 0 0-10 12.5h-3c-.4 0-.8-.1-1-.5a48.1 48.1 0 0 1 11-15 31 31 0 0 0 9-4c4-.8 8-.7 12 .5 2.5 1.6 5.2 2.6 8 3v4h4v4h4a21 21 0 0 0 3.5 10 28.9 28.9 0 0 1-16.5 29.5c-6.7.7-13.3.7-20 0a9 9 0 0 0-7-3.5v-4h-4c0-2.5-1-4.5-3-6-1-3.3-1.3-6.6-1-10Z"/><path style="opacity:1" fill="#fefcfc" d="M579.5 545.5v-14c2.3-5 5.6-9 10-12.5 3.8-.7 7.5-1.9 11-3.5 19.2 5 25.6 17 19 36h-4v4c-2.5 0-4.5 1-6 3-9.3 2.4-17.6.7-25-5-1.3-3-3-5.6-5-8Z"/><path style="opacity:1" fill="#fcf7a4" d="M863.5 518.5c-10.9 7-22.9 10-36 9a40.8 40.8 0 0 0-12-4.5c-3.9-2.8-7.9-5.3-12-7.5-.7-2.9-2.5-4.5-5.5-5 .1-19.3.4-38.7 1-58 1-.9 1.9-1.9 2.5-3 15.6-16.3 33.6-19.4 54-9.5a50.4 50.4 0 0 1 8 78.5Z"/><path style="opacity:1" fill="#ebd984" d="M831.5 438.5c4.1-.3 8.1.2 12 1.5l15 7.5c4.4 6.5 8.6 13.2 12.5 20 3.1 14 1.5 27.4-5 40-4 5-8.8 8.8-14.5 11.5-6.2.2-12.2 1.4-18 3.5-5-2-10.3-3.6-16-4.5-4-3-8.4-5.7-13-8-.7-5.3-1-10.6-1-16 .6-9.9.6-19.7 0-29.5.4-4.1 1.3-8.1 2.5-12 3.6-3.5 7.4-6.7 11.5-9.5 5-1.3 9.6-2.8 14-4.5Z"/><path style="opacity:1" fill="#3f0404" d="M173.5 496.5a349 349 0 0 0 34 130l1 4-2-1c-1.6 3-1 5.3 2 7 1 3.7 2.2 7.4 3.5 11 2 .6 3.2 2 3.5 4a7 7 0 0 0-4-1c0 3.5 1.4 6.1 4.5 8 3.3 7 7 13.6 11 20 4.2 3 7 7 8.5 12 2.4 2.4 5 4.4 8 6-.4 3.1-.8 6.1-1 9a78.3 78.3 0 0 0-12.5-16 342.3 342.3 0 0 1-65-153c-1.7-9.3-2.2-18.6-1.5-28-.2-1.2-1-1.9-2-2h-1v-3c-2.9.9-5.6 2.2-8 4l9-10c.7-1.5 1-3.1 1-5-.6-14.2-1.2-28.2-2-42-2.6-4-5.6-7.6-9-11 1 0 2 .4 3 1l1-2.5c-.8-2.3-1.8-4.4-3-6.5 3.3 3.5 6.5 7.1 9.5 11 .4-.2.6-.6.5-1 .8-3.5 1.3-7.1 1.5-11a16 16 0 0 1-.5 13.5 27.2 27.2 0 0 1 4 17.5h4l2 35Z"/><path style="opacity:1" fill="#220904" d="M803.5 515.5c4.1 2.2 8.1 4.7 12 7.5 4.3.9 8.3 2.4 12 4.5 2.2 2.5 4.8 4.3 8 5.5-5 .1-10-.4-15-1.5a37.8 37.8 0 0 1-17-10 7.1 7.1 0 0 1 0-6Z"/><path style="opacity:1" fill="#670202" d="m483.5 522.5 12 1v4c1.3-.2 2.5.2 3.5 1 .4 3.2 1.2 6.2 2.5 9a77 77 0 0 0-3 10c-2 .6-3 2-3 4-3.2-.3-6.2.4-9 2a47.2 47.2 0 0 0-10-3c-7.3-7.9-7.7-16-1-24.5 2.5-1.7 5.2-2.9 8-3.5Z"/><path style="opacity:1" fill="#930800" d="M607.5 524.5c3 .3 4.7 2 5 5-.6.4-1 1-1 2 2.2 3.7 3.2 7.7 3 12-3.8.2-5.5 2.2-5 6-3 .4-5.7 1-8.5 2a21 21 0 0 1-10.5-6c-1-5.3-1.3-10.6-1-16 6-2 12-3.6 18-5Z"/><path style="opacity:1" fill="#3d0b0c" d="M863.5 518.5a7 7 0 0 0-1 4c-2 .5-4 1.4-6 2.5 2 1.8 4.3 2.7 7 2.5-2.3 1.8-5 3.2-8 4a12 12 0 0 1-4 2.5 51 51 0 0 1-31-2.5c5 1.1 10 1.6 15 1.5-3.2-1.2-5.8-3-8-5.5 13.1 1 25.1-2 36-9Z"/><path style="opacity:1" fill="#200" d="M855.5 531.5a32.5 32.5 0 0 1-16 0v-3c5.5-.2 10.9-1.2 16-3v6Z"/><path style="opacity:1" fill="#940d02" d="M479.5 527.5a61 61 0 0 1 11 .5c1.1 3.4 3.3 6 6.5 7.5.7 2 .7 4 0 6-3 3-6.1 5.6-9.5 8-2.6.7-5.3.7-8 0 .3-4.3-1.7-6.3-6-6v-12c3.1.1 5.1-1.2 6-4Z"/><path style="opacity:1" fill="#e7d490" d="m653.5 311.5-2.5-3c-.5-3.5-1.5-6.8-3-10-5.5-6.1-11.3-12-17.5-17.5a65.5 65.5 0 0 1-18-8 47.7 47.7 0 0 0-37 7.5c-3 .3-5.7 1.5-8 3.5a70.8 70.8 0 0 0-14 17.5 6.9 6.9 0 0 0-3-2c-3.3 2.4-7 3.4-11 3-1-3.5-2.5-6.8-4.5-10-1-.8-2.2-1.2-3.5-1v-4c-3 .3-4.3-1-4-4-3 .3-4.3-1-4-4-1 .1-2 0-3-.5-2.4-2.5-5-4.8-8-7-9.1-1.6-18.3-3.1-27.5-4.5-5.6.5-11 2.2-16.5 5-3-1.3-4.7-.3-5 3-1.4-.2-2.7 0-4 .5a9.4 9.4 0 0 1-11 3.5 7.4 7.4 0 0 0 0 4.5 35.5 35.5 0 0 1-10.5 5.5 20.5 20.5 0 0 1-6 9l-1 8c-1.7.6-3 1.6-4 3a92.5 92.5 0 0 1-5.5-18c-1.5.3-2.8 0-4-1-1.6-2.8-3.6-3.5-6-2-3.5-2.3-6.8-4.8-10-7.5-27-16.6-51.6-13.5-73.5 9.5-4.2 7-8 14.4-11 22-5 22.8 2 40.8 21 54a7 7 0 0 0 2.5 4.5 95 95 0 0 0 15 6.5c-7 5-14.4 9.5-22 13.5-19.4 19.3-23.2 41.5-11.5 66.5a259 259 0 0 0 11.5 15.5c8.1 3.5 15.8 7.5 23 12-3.4 1.9-7 3-11 3.5-3.5 2.7-7.2 5.2-11 7.5-24 25-25.1 51.2-3.5 78.5l15.5 11.5a59.6 59.6 0 0 0 60-8c4.6-6.7 9.1-13.6 13.5-20.5l1-6a40 40 0 0 0 4-22l-2-2-1-8a81.7 81.7 0 0 0-7-14 204.4 204.4 0 0 0-16.5-15.5c-2.3-.8-4.6-1.5-7-2a4.3 4.3 0 0 1-3-2.5c9.4-7.2 18.3-15.2 26.5-24 1-2.5 2.4-4.8 4-7-.3-4.2 1.2-7.6 4.5-10a3 3 0 0 0 1 3c2.4-1.2 4.2-.6 5.5 2 1.2 4.6 1.7 9.3 1.5 14 4.2.3 4.9 2 2 5l3 3c2-1 4-1.2 6-.5a5 5 0 0 1-3 .5v3c2.4.3 4.7.8 7 1.5-2 1-3 2.4-3 4.5 9-1.8 13 2 12 11h4a26.7 26.7 0 0 0-7.5 5 5 5 0 0 0-.5 3c-5.3.7-9.8 3-13.5 7-1.3 10-3.4 19.6-6.5 29 .1 6.4 1 12.8 2.5 19 2.7 4.8 5 9.8 7 15 4 3.7 7.8 7.5 11.5 11.5 4 1.6 7.6 3.6 11 6 5.2 0 10.2 1 15 3 6 .7 12 .7 18 0 10.8-1.3 20-5.8 27.5-13.5 3.4-4.9 6.9-9.5 10.5-14 .7 3.3 2 3.7 4 1 .5 2.8 2.2 4.2 5 4 1.5 2.5 3.2 5 5 7.5 3 .2 6 .7 9 1.5a36.8 36.8 0 0 0 13.5 15 4 4 0 0 1 2-1c8.2-.6 14.7 2.3 19.5 8.5 6.3.7 12.7.7 19 0 1.7-2.5 4-4 7-4.5 3 1.2 6 1.2 9 0a44.3 44.3 0 0 0 13.5-16c2.8-1.8 5.5-3.8 8-6a34 34 0 0 1 6.5-10.5l-1-1c.8-2 1.3-4.2 1.5-6.5a6.5 6.5 0 0 1 3-3 9 9 0 0 0 5.5 9c-2.3 4.1-4 8.5-5 13a26 26 0 0 0 3.5 5l1 12c2 5.6 3.8 11.2 5 17 1.5 10 2.6 20 3.5 30l2 2a164 164 0 0 0 12 29.5l-1 1c3 4.8 3.7 10 2 15.5a130 130 0 0 0-38-10.5c1.6.9 2 1.9 1 3 3.5 1 6.8 2.2 10 3.5a63.7 63.7 0 0 1-21-6h8v-3c-30.5-7.9-61.5-13-93-15.5-50.4-2.6-100.7-2-151 2-16.4 2.2-32.7 4.2-49 6a323.9 323.9 0 0 1-51 12c-3.3 1.8-6.8 3-10.5 3.5-1.2.5-2 1.3-2.5 2.5-9.4 2.2-18.8 4.7-28 7.5v-4a352 352 0 0 0 15.5-42c2.9-12.7 5.6-25.3 8-38 3-18 5.6-36 8-54 .4-12.7 1-25.3 1.5-38 1.2-10.5 2-21.1 2.5-32 .7-29 .7-58 0-87-.6-7.5-1.8-14.8-3.5-22-1-20-2.1-40-3.5-60-2.6-22.2-6-44.2-10.5-66-.3-3.3 0-6.4 1-9.5-1.4-6.6-2.4-13.3-3-20 1.6-3.4.9-6.2-2-8.5.9-2.3 1-4.6.5-7-1.3-4.6-3.1-9-5.5-13a4 4 0 0 1 2-3.5c2.4-.3 4.6-1.1 6.5-2.5 3.2 2.8 6.9 4.8 11 6a4 4 0 0 0 2-1c4.9.8 9.7 1.8 14.5 3 4.5-1.1 8.9-.5 13 2 3.3-.9 6.5-1.2 9.5-1 2 1.5 4.3 1.9 6.5 1l28 2a9.4 9.4 0 0 0 3 3l29.5 2c15.9-1 31.7-1 47.5 0l11.5-2c49.8.4 100 .8 150.5 1 4-1 7.8-2.3 11.5-4 3.3 2.9 6.3 2.6 9-1 2 .6 3.9 1.6 5.5 3 2.3-1.2 4.8-1.9 7.5-2 10.2-.5 20.4-1.4 30.5-2.5 2-1.9 4.3-2.7 7-2.5l12 1c3.1-1.6 6.3-2 9.5-1 1 2 1.4 3.9 1.5 5.5a682 682 0 0 0-9 24.5 8 8 0 0 0 1 3.5 17.4 17.4 0 0 0-4 18c-3.3 18.7-7 37.2-11.5 55.5a13.2 13.2 0 0 1-5 3l-1 8a9 9 0 0 0-3.5 7 25 25 0 0 1-7-.5c-1.4-3.2-3.4-6-6-8.5a7.1 7.1 0 0 0-1 5Z"/><path style="opacity:1" fill="#020101" d="M359.5 487.5c20.4-3.3 37 3 50 19a51.3 51.3 0 0 1 4 54c-14.7 23-35.3 30.4-62 22-21.5-10.2-31.7-26.9-30.5-50a52.3 52.3 0 0 1 20.5-36.5c6-3.1 12-6 18-8.5Z"/><path style="opacity:1" fill="#fefdfd" d="M370.5 493.5c4.8 1.7 9.8 2.5 15 2.5 4.1 3.6 8.8 6.1 14 7.5v4c1.3-.2 2.5.2 3.5 1 13.4 21 12.2 41-3.5 60a20.2 20.2 0 0 1-8 3v4c-5 0-9.7 1-14 3.5-5 .4-9.9.6-14.5.5l-19.5-8v-4c-1.5.3-2.8 0-4-1l-7.5-9c-.1-3.2-1.3-5.8-3.5-8-1.2-8-1.3-16-.5-24 3.6-7.5 7.4-14.8 11.5-22 4.7-2.1 9.4-4.5 14-7a120 120 0 0 0 17-3Z"/><path style="opacity:1" fill="#090100" d="M361.5 499.5c6.7-.3 13.4 0 20 1 5 2 9.6 4.4 14 7v4h4c2.5 5.1 4.8 10.5 7 16a41 41 0 0 1 0 18c-2.2 3-3.5 6.3-4 10a14 14 0 0 0-5 7 31.1 31.1 0 0 1-9 5.5c-.8 1-1.2 2.2-1 3.5-5.8 0-11.5.6-17 2a482 482 0 0 0-17-2.5 10.5 10.5 0 0 0-6-4.5c-2.2-1.8-3.8-4-5-6.5a5 5 0 0 0-3-.5c-3.2-6.2-5.9-12.7-8-19.5 1.1-6.2 2.6-12.4 4.5-18.5a34.4 34.4 0 0 1 10.5-14c5-3 10-5.6 15-8Z"/><path style="opacity:1" fill="#fefdfc" d="M368.5 503.5a320 320 0 0 1 17 4.5l7 6.5a3 3 0 0 0 3 1c2.9 6.6 5.5 13.2 8 20-4.5 26.3-19.9 36.6-46 31a39.2 39.2 0 0 1-20-26l3-17a8.8 8.8 0 0 0 3-8h4v-4c7-2.8 14-5.5 21-8Z"/><path style="opacity:1" fill="#0f0101" d="M375.5 561.5c-3.9.2-4.5-.8-2-3a12 12 0 0 1 10-3c-.3-3 1-4.3 4-4 .4-3 1.5-5.7 3.5-8 .7-4.7.7-9.3 0-14-9-15.1-21-18.3-36.5-9.5a25.2 25.2 0 0 0-7 16.5l.5 6c1.7 2.8 2.9 5.8 3.5 9h4v4c3.8 0 7.5.6 11 2a12 12 0 0 1 1 6 58 58 0 0 1-17.5-9 37 37 0 0 0-5.5-9 43.2 43.2 0 0 1-.5-16c2.2-2.2 3.6-4.9 4-8 3.5-3.6 7.4-6.7 11.5-9.5 7-.7 14-.7 21 0a9 9 0 0 0 7 3.5v4h4c.9 3.4 2 6.7 3.5 10 .7 5 .7 10 0 15l-7.5 12c-3.8 2.2-7.8 4-12 5Z"/><path style="opacity:1" fill="#fefdfd" d="M373.5 558.5c-2.3-.5-4.6-.8-7-1-3.5-1.4-7.2-2-11-2v-4h-4c-.6-3.2-1.8-6.2-3.5-9l-.5-6c.3-6.3 2.6-11.8 7-16.5 15.4-8.8 27.6-5.6 36.5 9.5.7 4.7.7 9.3 0 14-2 2.3-3.1 5-3.5 8-3-.3-4.3 1-4 4-4-.5-7.2.5-10 3Z"/><path style="opacity:1" fill="#910c03" d="M365.5 523.5h8a9 9 0 0 0 6.5 8c.6 2.1 1 4.3 1.5 6.5-1.5 3.8-2.8 7.7-4 11.5-5.1-.6-9.8 0-14 2a8.3 8.3 0 0 1-4-4c1 0 1.7-.5 2-1.5a11.4 11.4 0 0 1-4-7c.4-3.2 1.1-6.4 2-9.5 0-1-.4-1.6-1-2a7 7 0 0 0 1-4h6Z"/><path style="opacity:1" fill="#5f0101" d="M363.5 551.5c4.2-2 8.9-2.6 14-2 1.2-3.8 2.5-7.7 4-11.5-.4-2.2-1-4.4-1.5-6.5a9 9 0 0 1-6.5-8h-8c1-1.3 2.5-2 4.5-2 9 .7 14.2 5.5 15.5 14.5-1.6 13-8.9 18.2-22 15.5Z"/><path style="opacity:1" fill="#47141d" d="M576.5 531.5h3v14c-1-.1-1.8-.8-2-2 2-2.7 1.3-4-2-4a25 25 0 0 1 1-8Z"/><path style="opacity:1" fill="#380403" d="M635.5 527.5c4 7.3 4 14.7 0 22v-6h-4v-12h4v-4Z"/><path style="opacity:1" fill="#560101" d="M358.5 527.5c.6.4 1 1 1 2-.9 3.1-1.6 6.3-2 9.5.5 2.8 1.8 5.1 4 7-.3 1-1 1.5-2 1.5a5.4 5.4 0 0 1-3.5-3c-.7-5-.7-10 0-15a7 7 0 0 1 2.5-2Z"/><path style="opacity:1" fill="#c3595c" d="M454.5 533.5c-.2 3.4.2 6.7 1 10a6.8 6.8 0 0 1-2-5c0-1.9.3-3.5 1-5Z"/><path style="opacity:1" fill="#0a0201" d="M635.5 527.5v4h-4a25 25 0 0 0-.5-7c-1-.8-2.2-1.2-3.5-1 .3-1.5 0-2.8-1-4-3.7-4.4-8-8-13-11a85 85 0 0 0-26 0 9.3 9.3 0 0 1-6 3.5c-4 3-7 7-9 11.5-.4 5.6-2 10.8-5 15.5 2.5 7 5.1 13.9 8 20.5h4c-.1 1 0 2 .5 3 6.5 4 13.5 7 21 9 4.9-1.4 9.7-3 14.5-4.5 3.2-1.5 5.9-3.7 8-6.5 1.2-1 2.5-1.3 4-1 2.4-5 3.7-10.3 4-16h4v6c.2 1.4 0 2.7-.5 4-2.2 4.6-4.9 9-8 13-5.3 3.4-10.8 6.2-16.5 8.5-6.3.7-12.7.7-19 0l-16-7.5v-4h-4c-2.5-5.2-4.8-10.5-7-16l-1-8a6370 6370 0 0 0 4-20h4c.4-2.8 1.4-5.5 3-8a154 154 0 0 0 11-7c20.5-7.8 36.9-2.2 49 17 1 1.9 1.3 3.9 1 6Z"/><path style="opacity:1" fill="#4e0101" d="M607.5 524.5c-6 1.4-12 3-18 5 1.1-2.3 2.8-4.1 5-5.5a29 29 0 0 1 13 .5Z"/><path style="opacity:1" fill="#f2ecac" d="M292.5 413.5h1c-.5 33.7.2 67.4 2 101l-1.5 38c-2.4 18-5 36-8 54-2.4 12.7-5.1 25.3-8 38a352 352 0 0 1-15.5 42l-6 2c3.3-6 6.1-12.4 8.5-19a719.3 719.3 0 0 0 27-168c.5-29.3.7-58.7.5-88Z"/><path style="opacity:1" fill="#4f0103" d="M589.5 529.5c-.3 5.4 0 10.7 1 16 2.9 3 6.4 5 10.5 6 2.8-1 5.6-1.6 8.5-2-.5-3.8 1.2-5.8 5-6 .2-4.3-.8-8.3-3-12 0-1 .4-1.6 1-2a7 7 0 0 1 2.5 2c.7 5 .7 10 0 15-4 4-8.9 7-14.5 9-3-2.2-6.4-3.7-10-4.5-4-4.9-5.4-10.4-4.5-16.5.7-2.1 1.9-3.8 3.5-5Z"/><path style="opacity:1" fill="#4b1019" d="M366.5 557.5c2.4.2 4.7.5 7 1-2.5 2.2-1.9 3.2 2 3-.1.6-.4 1.1-1 1.5a25 25 0 0 1-7 .5 12 12 0 0 0-1-6Z"/><path style="opacity:1" fill="#470706" d="M766.5 615.5c0-1.3-.7-2-2-2 1.7-7.1 3.9-14.1 6.5-21 .7-2.3.7-4.7 0-7-1 1.4-1.8 2.7-2.5 4l11-40c-.3 2.7 0 5.4 1 8 3.3-3.6 4.8-8 4.5-13 .4-.5 1-.8 1.5-1 1.2 3.6 1.3 7.3.5 11-2.6 5-3.9 10.3-4 16-.4 1.2-1 2.2-2 3 .7 9.5-2 17.8-8 25v9a12.4 12.4 0 0 0-4 7c-.7.8-1.5 1-2.5 1Z"/><path style="opacity:1" fill="#fdf8b3" d="M615.5 487.5a25 25 0 0 1 7 .5c8.6 5.2 16.8 11 24.5 17.5a32 32 0 0 0 9 16c.3 10-.4 20-2 30-3.3 6.1-6 12.4-8 19-4.5 3.8-8.7 8-12.5 12.5-3.1.4-5.8 1.8-8 4-4.7 2.4-9.7 4-15 5-12 2.5-23 .3-33-6.5 1.3 0 2-.7 2-2 4 .4 7.6 1.6 11 3.5 7.7.8 15.4.7 23-.5 3-2 6.4-3.2 10-3.5 24-15 31.6-36.2 23-63.5-5.6-14.6-16-24-31-28v-4Z"/><path style="opacity:1" fill="#460c0f" d="M481.5 568.5h10a8.7 8.7 0 0 1-4 3 6 6 0 0 0 5 2 7.9 7.9 0 0 1-6 2c-2.4.1-4.4-.5-6-2h3c.1-2-.5-3.7-2-5Z"/><path style="opacity:1" fill="#faf5a2" d="M746.5 461.5a2385 2385 0 0 0 39 3c1 7 1.3 14 1 21-.9 21.5-3.2 42.8-7 64l-11 40c-2.2 3.8-4.4 7.8-6.5 12a13 13 0 0 0-.5 5v2c-3.4 4-5.7 8.7-7 14a268.5 268.5 0 0 1-41 64 240 240 0 0 1-9.5-26c-4.3-18.2-8.3-36.6-12-55-3.1-25.3-6.1-50.7-9-76-.7-23.7-1.6-47.3-2.5-71 1.4-.6 3-.9 4.5-1l61.5 4Z"/><path style="opacity:1" fill="#ebd985" d="M686.5 462.5c12.8-.4 25.5.8 38 3.5 17.8 0 35.4 1 53 3a4.9 4.9 0 0 0 5 2.5 462.3 462.3 0 0 0-2.5 46c-6.4 23.4-12 47-17 71a315.7 315.7 0 0 1-44 84 5 5 0 0 0-.5 3c-2.2.3-4-.3-5.5-2-2.2-9.6-4.2-19.3-6-29a431 431 0 0 1-17-110c-.8-3.6-1.4-7.3-2-11a889 889 0 0 1-1.5-61Z"/><path style="opacity:1" fill="#996c42" d="M768.5 589.5c-1 6.3-3.3 12-7 17a13 13 0 0 1 .5-5c2.1-4.2 4.3-8.2 6.5-12Z"/><path style="opacity:1" fill="#f9f49b" d="M275.5 456.5h7a958.3 958.3 0 0 1-35 231l-18.5-23c-5-8.9-10-17.5-15.5-26-.3-1.8 0-3.5 1-5 9 12.2 17.6 24.9 25.5 38 2.2.8 3.7 2.3 4.5 4.5 1 .5 2 .6 3 .5a158 158 0 0 1 8.5-42c4.6-26.4 9.2-52.8 14-79 3-30.6 5.4-61.2 7-92-32.4.1-65-.2-97.5-1-.2 18 0 36 .5 54 3.7 19.6 7.7 39 12 58a432 432 0 0 0 22.5 55c0 1.5-.6 2.5-2 3-1.4-2.3-3-4.3-5-6a349 349 0 0 1-34-130c.3-12.7 0-25.4-1-38h6a2948 2948 0 0 1 97-2Z"/><path style="opacity:1" fill="#a47242" d="M761.5 608.5a34.7 34.7 0 0 1-7 14c1.3-5.3 3.6-10 7-14Z"/><path style="opacity:1" fill="#f9f6e0" d="M174.5 579.5c11.8 40 30.3 76.6 55.5 110 5 4.9 9 10.2 12.5 16a21 21 0 0 0-3 4.5c.3 1.5 1 2.6 2 3.5v5a3 3 0 0 1-3-1 61.7 61.7 0 0 1-4.5-15 101.7 101.7 0 0 1-16-18c-7-14.3-15-28-24-41a383 383 0 0 1-18-40c-3.4-9-5.5-18.4-6.5-28 2.9 0 4.6 1.2 5 4Z"/><path style="opacity:1" fill="#310603" d="m208.5 630.5 5 8c5.4 8.5 10.6 17.1 15.5 26l18.5 23a22.8 22.8 0 0 0-3 4c-.1-2.3-1-4.3-2.5-6-5.2-1.7-8-5.4-8.5-11a53.9 53.9 0 0 1-18-23c-.3-2-1.4-3.4-3.5-4a210 210 0 0 1-3.5-11c-3-1.7-3.6-4-2-7l2 1Z"/><path style="opacity:1" fill="#59100c" d="M764.5 613.5c1.3 0 2 .7 2 2-1 3.3-2.5 6.3-4.5 9-.8 3-1.5 6-2 9-3.7 4.4-6 9.4-7 15a71.6 71.6 0 0 0-15.5 23l-18 23c-1.6.5-3.3.9-5 1-.3-2.1 0-4.1 1-6 5.4-1.9 8.9-5.6 10.5-11a64.9 64.9 0 0 0 16-24c4.4-3.7 7-8.4 8-14 1-1.1 2.2-2.1 3.5-3 2.6-4.4 4.4-9 5.5-14 2-3.2 4-6.6 5.5-10Z"/><path style="opacity:1" fill="#550604" d="M215.5 651.5a53.9 53.9 0 0 0 18 23c.5 5.6 3.3 9.3 8.5 11a9.3 9.3 0 0 1 2.5 6c-.1 1.7-.5 3.4-1 5-3-1.6-5.6-3.6-8-6a22 22 0 0 0-8.5-12c-4-6.4-7.7-13-11-20a8.7 8.7 0 0 1-4.5-8 7 7 0 0 1 4 1Z"/><path style="opacity:1" fill="#f8f3a9" d="M639.5 675.5a749.8 749.8 0 0 0-338 7.5c-6.9 3-13.9 5.6-21 8l-8 1-18 7.5-3-.5a22 22 0 0 0 5-10.5l6-2v4c9.2-2.8 18.6-5.3 28-7.5.5-1.2 1.3-2 2.5-2.5 3.7-.5 7.2-1.7 10.5-3.5 17.3-2.6 34.3-6.6 51-12 16.3-1.8 32.6-3.8 49-6 50.3-4 100.6-4.6 151-2 31.5 2.5 62.5 7.6 93 15.5v3h-8Z"/><path style="opacity:1" fill="#ebd985" d="M383.5 775.5a915.8 915.8 0 0 1-39-16.5l-16-8a739.2 739.2 0 0 1-58-44.5c9-3.2 18-6.7 27-10.5a4697 4697 0 0 1 38-8.5l18-1.5c14-2.8 28-5.1 42-7 17.1 0 34.1-1.3 51-4a930 930 0 0 1 61 0l50 4a568 568 0 0 1 38 7l19 1a44.5 44.5 0 0 0 22 5c18.3 4 36.3 9 54 15-11 8.5-21.7 17.5-32 27l-32 20a726.4 726.4 0 0 1-66 29c-18.4 2.2-36.8 4.9-55 8-25 1-50 .4-75-2-6.2-1.2-12.2-3-18-5l-10-1c-6-3.4-12.3-5.9-19-7.5Z"/><path style="opacity:1" fill="#360805" d="M764.5 613.5a80.4 80.4 0 0 1-5.5 10c-1 5-2.9 9.6-5.5 14-1.3.9-2.4 1.9-3.5 3-1 5.6-3.6 10.3-8 14a64.9 64.9 0 0 1-16 24 15.8 15.8 0 0 1-10.5 11 9.9 9.9 0 0 0-1 6c1.7-.1 3.4-.5 5-1-1 1.8-2.7 2.4-5 2-1-3.1-1.3-6.5-1-10a268.5 268.5 0 0 0 41-64c3.4-4.1 5.7-8.8 7-14v-2c3.7-5 6-10.7 7-17l2.5-4c.7 2.3.7 4.7 0 7-2.6 6.9-4.8 13.9-6.5 21Z"/><path style="opacity:1" fill="#f8f2a8" d="M685.5 633.5c3.4 10.8 6.6 21.8 9.5 33 4.2 11 8.9 21.7 14 32a4.2 4.2 0 0 1-4.5.5c-14.4-6.7-29-12.5-44-17.5a82.6 82.6 0 0 0-10-3.5c1-1.1.6-2.1-1-3a130 130 0 0 1 38 10.5 17 17 0 0 0 9 3c.2-2 0-4-.5-6a318.5 318.5 0 0 1-12-32 69.5 69.5 0 0 0-2.5-15c0-2.1.5-4.1 1.5-6a12 12 0 0 0 2.5 4Z"/><path style="opacity:1" fill="#260704" d="M741.5 672.5a246.5 246.5 0 0 1-68 71c-1.5-.3-2.2-1.3-2-3 3.8-3.3 7.4-6.8 11-10.5l13-6.5c-.1-1 0-2 .5-3 7.1-3 11-8.3 11.5-16h-4c3.1-.8 6.5-1.3 10-1.5 1-2 1.3-4.2 1-6.5 2.3.4 4-.2 5-2l18-23c2-1.7 3.3-1.3 4 1Z"/><path style="opacity:1" fill="#fcf8a9" d="M338.5 683.5c-.7.9-1.7 1.2-3 1v3a4697 4697 0 0 0-38 8.5c-9 3.8-18 7.3-27 10.5 18.7 15.8 38 30.7 58 44.5l16 8a915.8 915.8 0 0 0 39 16.5 7 7 0 0 1-1 4c-10.7-3.2-21-7.2-31-12l-19-9.5c-9.4-5-18.4-10.5-27-16.5l-42-35v-2l31-12.5c11.6-3 23.2-5.6 35-8 3-.5 6-.7 9-.5Z"/><path style="opacity:1" fill="#280402" d="M301.5 748.5c0 1 .2 1.8 1 2.5-.6.5-1.3.6-2 .5-1 .1-2 0-3-.5a523.6 523.6 0 0 1-35-27.5c-.3-1.5 0-2.8 1-4l11 10a51 51 0 0 1 15 11.5c5.4.3 9.4 2.8 12 7.5Z"/><path style="opacity:1" fill="#540000" d="M263.5 704.5v2h-3c1.8 3.1 3.8 6.3 6 9.5 12 9.5 24 18.6 36 27.5 1.1 1.4 2.1 2.9 3 4.5-1.3.5-2.6.7-4 .5a13.6 13.6 0 0 0-12-7.5 51 51 0 0 0-15-11.5l-11-10a4.9 4.9 0 0 0-1 4c-2.7-2-5-4.3-7-7 1-.1 1.8-.8 2-2a8.6 8.6 0 0 1-2.5-6c2.6-1.8 5.4-3.1 8.5-4Z"/><path style="opacity:1" fill="#2b0502" d="m263.5 706.5 42 35c-.3 1.5-1.3 2.2-3 2-12-8.9-24-18-36-27.5-2.2-3.2-4.2-6.4-6-9.5h3Z"/><path style="opacity:1" fill="#fbf8e5" d="M736.5 959.5h-5a19 19 0 0 0-1.5-8l-31-64a471.6 471.6 0 0 0-56-79c-3.7-3.9-7.7-7.5-12-11-1-2.5-1.5-5.2-1.5-8 1.2-7 1.9-14 2-21a18 18 0 0 0 10-5c4.6-1.6 9-3.8 13-6.5 6.8-4 13-8.5 19-13.5a246.5 246.5 0 0 0 68-71 364 364 0 0 0 14.5-22c5-10.9 10.3-21.5 16-32 4.3-10.8 8.1-21.8 11.5-33 .6-1.5 1.6-2.9 3-4 .3 1.5 1 3.4 2 5.5-3.5 13.2-8 26-13.5 38.5-4.7 7.5-8.7 15.5-12 24l-11 16a24 24 0 0 1-5 11 52.2 52.2 0 0 0-13 17 579.7 579.7 0 0 1-39.5 41.5 530 530 0 0 0-32 23c-8 3.5-15.8 7.9-23 13a39.9 39.9 0 0 0-4.5 13.5 15 15 0 0 0 1 10 376.9 376.9 0 0 1 41 51c10.7 12.4 19.3 26 26 41 5 5.8 8.3 12.5 10 20 2.4 2.7 4.4 5.7 6 9 3.2 9.8 7.6 19.1 13 28 2.7 5 4.2 10.3 4.5 16Z"/><path style="opacity:1" fill="#480706" d="M697.5 704.5h10c-.5 7.7-4.4 13-11.5 16a5 5 0 0 0-.5 3l-13 6.5c-3.6 3.7-7.2 7.2-11 10.5-4 1.2-7.8 3.2-11 6-1-.9-1.2-1.9-.5-3 3.6-5.2 8.4-8.4 14.5-9.5l18.5-18.5 1.5-4.5c0-.8-.4-1.3-1-1.5 1.9-1.3 3.2-3 4-5Z"/><path style="opacity:1" fill="#390504" d="M693.5 709.5c.6.2 1 .7 1 1.5l-1.5 4.5-18.5 18.5c-6.1 1.1-11 4.3-14.5 9.5-.7 1.1-.6 2.1.5 3 3.2-2.8 7-4.8 11-6-.2 1.7.5 2.7 2 3-6 5-12.2 9.5-19 13.5-4 2.7-8.4 4.9-13 6.5-2.5.1-4.9-.6-7-2a19 19 0 0 1-3 5 89.3 89.3 0 0 0-4 24c-3.6-.3-5.3 1.3-5 5 .2 2 .9 3.6 2 5-3.1 2-6.5 4-10 5.5a7.5 7.5 0 0 1-3 3.5v-4h-3a7 7 0 0 1 2-2.5c3.5-1 6.8-2 10-3.5-.3-6.3.4-12.5 2-18.5l-1-6.5c-4 0-7.7 1-11 3 3-2.6 6-5 9.5-7 .7-.8.5-1.5-.5-2a29 29 0 0 0-4-1.5c.6-.4.9-.9 1-1.5a336 336 0 0 0 77-56Z"/><path style="opacity:1" fill="#3a0505" d="M305.5 741.5c8.6 6 17.6 11.5 27 16.5l19 9.5c1.2 3 3.4 5.4 6.5 7 1 1.5 1.5 3.2 1.5 5 5.3-.2 10.7 0 16 .5l11 7c5.7.2 11.4.9 17 2a7 7 0 0 1 2 2.5 51.6 51.6 0 0 0-19-3c-7.1-1.9-14.1-4-21-6.5-3.4-.5-6.7-.4-10 .5.2 4.3 0 8.7-.5 13-1 1.6-2.1 3-3.5 4 2.3-4.9 2.4-9.9.5-15-3-.6-5.3-2.3-6.5-5 .2-1.9-.5-3.4-2-4.5a223.3 223.3 0 0 1-43-23.5c.7.1 1.4 0 2-.5-.8-.7-1-1.5-1-2.5 1.4.2 2.7 0 4-.5-.9-1.6-1.9-3.1-3-4.5 1.7.2 2.7-.5 3-2Z"/><path style="opacity:1" fill="#4d0706" d="M616.5 765.5c-.1.6-.4 1.1-1 1.5 1.4.4 2.7.9 4 1.5 1 .5 1.2 1.2.5 2-3.4 2-6.6 4.4-9.5 7l-12 3c-6.5 0-12.2 2-17 6.5l-13 1c-4.4 2.1-9 3.5-14 4-10.7.8-21.4 2-32 3.5l39-7.5a991 991 0 0 0 55-22.5Z"/><path style="opacity:1" fill="#530d08" d="M351.5 767.5c10 4.8 20.3 8.8 31 12 4.7 2.6 9.7 4.8 15 6.5a161 161 0 0 1 21 6.5c-4.4.2-8.7-.1-13-1a7 7 0 0 0-2-2.5 106 106 0 0 0-17-2l-11-7c-5.3-.5-10.7-.7-16-.5 0-1.8-.5-3.5-1.5-5-3.1-1.6-5.3-4-6.5-7Z"/><path style="opacity:1" fill="#fbf69f" d="M697.5 704.5c-.8 2-2.1 3.7-4 5a336 336 0 0 1-77 56 991 991 0 0 1-55 22.5l-39 7.5h-5c-25.3.2-50.7 0-76-.5-7.4-.1-14.8-1-22-2.5h-1a161 161 0 0 0-21-6.5 87.6 87.6 0 0 1-15-6.5 7 7 0 0 0 1-4c6.7 1.6 13 4.1 19 7.5l10 1c5.8 2 11.8 3.8 18 5 25 2.4 50 3 75 2 18.2-3.1 36.6-5.8 55-8a726.4 726.4 0 0 0 66-29l32-20c10.3-9.5 21-18.5 32-27-17.7-6-35.7-11-54-15-7.8.2-15.2-1.5-22-5l-19-1a568 568 0 0 0-38-7l-50-4a930 930 0 0 0-61 0c-16.9 2.7-33.9 4-51 4-14 1.9-28 4.2-42 7l-18 1.5v-3c1.3.2 2.3-.1 3-1 12.8-2.6 25.8-5.1 39-7.5 15-.7 30-2 45-4a764.5 764.5 0 0 1 240 21 462 462 0 0 1 35 11.5Z"/><path style="opacity:1" fill="#290202" d="M598.5 780.5a181 181 0 0 1-64 18h-3c-.2 11.3 0 22.7.5 34a3.3 3.3 0 0 0 3.5 2c-.5 2.8-2.2 4.2-5 4 .6-13.4 0-26.4-2-39a7 7 0 0 0-4 1c-4.4.3-8.8-.2-13-1.5 2.2-1 4.2-2.1 6-3.5h5c10.6-1.5 21.3-2.7 32-3.5 5-.5 9.6-1.9 14-4l13-1a23.9 23.9 0 0 1 17-6.5Z"/><path style="opacity:1" fill="#0d2926" d="M608.5 805.5c-4.1 1-7.8 2.8-11 5.5-11 4-21.7 8.9-32 14.5-10 2.5-20 5.2-30 8-1-11.6-1.3-23.3-1-35a181 181 0 0 0 64-18l12-3c3.3-2 7-3 11-3l1 6.5c-1.6 6-2.3 12.2-2 18.5a66.2 66.2 0 0 1-10 3.5 7 7 0 0 0-2 2.5Z"/><path style="opacity:1" fill="#4a0908" d="M419.5 792.5c7.2 1.5 14.6 2.4 22 2.5 25.3.5 50.7.7 76 .5a26.1 26.1 0 0 1-6 3.5c4.2 1.3 8.6 1.8 13 1.5a194 194 0 0 1-51.5 2c-1 .1-1.9.6-2.5 1.5.5 10.1.7 20.3.5 30.5 4.4 3.6 8 8 10.5 13-2.2-.1-4.2-.8-6-2 .1-1 0-2-.5-3-7.5-5.6-9.7-13-6.5-22a157 157 0 0 0-2-19c-.8-.3-1.5-.8-2-1.5a91 91 0 0 1-45-7.5Z"/><path style="opacity:1" fill="#1f0506" d="M386.5 788.5c6.6-.2 12.9.8 19 3 4.3.9 8.6 1.2 13 1h1a91 91 0 0 0 45 7.5c.5.7 1.2 1.2 2 1.5a157 157 0 0 1 2 19c-3.2 9-1 16.4 6.5 22 .5 1 .6 2 .5 3-2.8-2-5.2-4.5-7-7.5a8.4 8.4 0 0 0-4-.5c-.1 1.8.2 3.4 1 5-4 1.2-7.4 0-10-3.5-8.2-2-16.5-3-25-3-2.2-.6-4.2-1.4-6-2.5 4.9 1.4 9.9 2 15 2a31 31 0 0 0 8-1c5.4-.1 10.7.2 16 1 1.2-10 2.2-20 3-30l-1-2c-14.4-1-28.7-2.6-43-4.5-9.2-2.7-18.6-5-28-7-3-.7-5.6-1.9-8-3.5Z"/><path style="opacity:1" fill="#530601" d="M608.5 805.5h3v4a697.8 697.8 0 0 0-42 20.5c-4 1-8 1.8-12 2.5h-4v-3a48 48 0 0 1 11-2.5c.6-.4.9-.9 1-1.5 10.3-5.6 21-10.5 32-14.5 3.2-2.7 6.9-4.6 11-5.5Z"/><path style="opacity:1" fill="#0e2825" d="M386.5 788.5c2.4 1.6 5 2.8 8 3.5 9.4 2 18.8 4.3 28 7 14.3 2 28.6 3.4 43 4.5l1 2c-.8 10-1.8 20-3 30a96.9 96.9 0 0 0-16-1 455 455 0 0 1-49-15.5c-10-4.2-19.7-9.2-29-15-3-1-6-1.5-9-1.5-.2 1.9.5 3.4 2 4.5a283.5 283.5 0 0 0 62 26.5c1.8 1.1 3.8 2 6 2.5 8.5 0 16.8 1 25 3 2.6 3.5 6 4.7 10 3.5a9.1 9.1 0 0 1-1-5c1.4-.2 2.7 0 4 .5 1.8 3 4.2 5.5 7 7.5 1 3.5 2.6 6.6 5 9.5-1.3.7-2.7.7-4 0a95.1 95.1 0 0 1-8-8.5c-1.2.4-2.2 1-3 2 3.1 4.3 5.6 9 7.5 14 1 .8 2.2 1.2 3.5 1 1.7.4 2.7 1.4 3 3-.7.9-1.7 1.2-3 1-6-7.3-13.4-8.8-22-4.5a23.1 23.1 0 0 0-1.5 23.5c3.4 4.8 7.9 6.6 13.5 5.5 4-2.2 7.5-5 10.5-8.5.9-3.5 2-6.9 3.5-10 1.4-.2 2.7 0 4 .5a7.5 7.5 0 0 0 3 3.5c1.6 3 3.7 5.7 6.5 8-1 14-1.5 28-1.5 42a385 385 0 0 0-1 32h-237c0-5.6 1.2-11 3.5-16 3-5.1 6.4-10.1 10-15 .8-2.3 1.5-4.6 2-7 5.6-9.2 11-18.6 16-28a80 80 0 0 1 11-19c2-5.7 5.3-10.7 10-15a453.6 453.6 0 0 1 28-44c5.4-5.5 10.9-10.9 16.5-16 1.4-1 2.6-2.4 3.5-4 .5-4.3.7-8.7.5-13 3.3-.9 6.6-1 10-.5 6.9 2.5 13.9 4.6 21 6.5Z"/><path style="opacity:1" fill="#0d2825" d="M624.5 800.5c8.8 7 16 15.3 21.5 25 5.1 5.3 9.6 11 13.5 17 1.6 3 3.7 5.8 6.5 8 8.5 13.6 16.6 27.3 24.5 41 5 8.3 9.1 17 12.5 26a502.3 502.3 0 0 1 18 35c.7 2.3 1.2 4.6 1.5 7h-179c.3-2 0-3.6-1-5a4 4 0 0 0-2-3.5c-9.4-4-18.3-3.2-26.5 2.5a10.1 10.1 0 0 0-1.5 6h-14v-30c.8-11.2 1.3-22.5 1.5-34a82.3 82.3 0 0 1 8.5-15c7-6.5 13.8-13.1 20.5-20 2.6-2.5 4-5.5 4.5-9 1.8-4.4 3.5-9 5-13.5 5.4-.5 10.7-1.2 16-2 1.2-1 2.2-2.2 3-3.5 4-.7 8-1.6 12-2.5a697.8 697.8 0 0 1 42-20.5c1.3-.8 2.3-2 3-3.5 3.5-1.6 6.9-3.4 10-5.5Z"/><path style="opacity:1" fill="#530608" d="M447.5 834.5a31 31 0 0 1-8 1c-5.1 0-10.1-.6-15-2a283.5 283.5 0 0 1-62-26.5 4.6 4.6 0 0 1-2-4.5c3 0 6 .5 9 1.5 9.3 5.8 19 10.8 29 15a455 455 0 0 0 49 15.5Z"/><path style="opacity:1" fill="#430404" d="M641.5 763.5a18 18 0 0 1-10 5c-.1 7-.8 14-2 21 0 2.8.5 5.5 1.5 8 4.3 3.5 8.3 7.1 12 11 21.4 24.4 40 50.7 56 79l31 64a19 19 0 0 1 1.5 8h-9c-.3-2.4-.8-4.7-1.5-7a502.3 502.3 0 0 0-18-35c-3.4-9-7.5-17.7-12.5-26a7 7 0 0 0 4 1 32.4 32.4 0 0 0-9-19c-1.7-4.6-3.8-9-6.5-13-2-2.9-4.6-5.2-7.5-7a42.2 42.2 0 0 0-11-18c-1 2.2-1.3 4.6-1 7-3.9-6-8.4-11.7-13.5-17a85.8 85.8 0 0 0-21.5-25 9.5 9.5 0 0 1-2-5c-.3-3.7 1.4-5.3 5-5 .2-8.2 1.6-16.2 4-24a19 19 0 0 0 3-5c2.1 1.4 4.5 2.1 7 2Z"/><path style="opacity:1" fill="#0d0001" d="M534.5 798.5c-.3 11.7 0 23.4 1 35v1c-1.6.1-2.8-.5-3.5-2-.5-11.3-.7-22.7-.5-34h3Z"/><path style="opacity:1" fill="#fdf6a4" d="M528.5 799.5c.5 18 0 36-1.5 54a391 391 0 0 0-23 24c-3.6-7-8-13.4-13.5-19a72 72 0 0 0-9-11c-2.6-5-6-9.4-10.5-13 .2-10.2 0-20.4-.5-30.5.6-.9 1.4-1.4 2.5-1.5a194 194 0 0 0 51.5-2 7 7 0 0 1 4-1Z"/><path style="opacity:1" fill="#ebd985" d="M518.5 806.5h6l-2 26.5a28 28 0 0 1 1.5 15.5 105 105 0 0 1-18.5 20 33.1 33.1 0 0 0-10.5-11c-2-3.8-4.4-7.5-7-11-5-4.4-9.4-9.4-13-15-.7-5.4-.2-10.5 1.5-15.5 0-2.2-.4-4.4-1-6.5l43-3Z"/><path style="opacity:1" fill="#470907" d="M528.5 799.5c2 12.6 2.6 25.6 2 39 2.8.2 4.5-1.2 5-4v-1c10-2.8 20-5.5 30-8-.1.6-.4 1.1-1 1.5a48 48 0 0 0-11 2.5v3h4c-.8 1.3-1.8 2.5-3 3.5-5.3.8-10.6 1.5-16 2-1.5 4.6-3.2 9-5 13.5a165.4 165.4 0 0 1-25 24 4 4 0 0 0 0 5 82.3 82.3 0 0 0-8.5 15c-.2 11.5-.7 22.8-1.5 34 .2-6.3 0-12.7-.5-19-.8-5.9-2.1-6.2-4-1-.2 6.2-.7 12.2-1.5 18 0-14 .5-28 1.5-42-2.8-2.3-5-5-6.5-8-.3-1.5 0-2.8 1-4 2.3.8 4 2 5.5 4 1 4.6 3.9 6.6 8.5 6 .2-1.4 0-2.7-.5-4-4.5-3.6-8-8-10.5-13 1 0 1.6-.5 2-1.5-1.4-2-2.4-4.1-3-6.5 5.4 5.6 10 12 13.5 19a391 391 0 0 1 23-24c1.5-18 2-36 1.5-54Z"/><path style="opacity:1" fill="#fbf9e5" d="M255.5 716.5c2 2.7 4.3 5 7 7a523.6 523.6 0 0 0 35 27.5c1 .5 2 .6 3 .5a223.3 223.3 0 0 0 43 23.5 4.6 4.6 0 0 1 2 4.5 51 51 0 0 1 .5 16 448.8 448.8 0 0 0-61 78l-41 81a13 13 0 0 0-.5 5h-4c.8-6.5 2.3-12.8 4.5-19a428 428 0 0 1 19-34 60 60 0 0 1 4.5-13 1310 1310 0 0 1 24.5-41c8.4-9.8 16-20.1 23-31 5.7-6 11-12.4 16-19a30 30 0 0 1 7-6c3-5.8 3.2-11.6.5-17.5a153 153 0 0 1-18-8 34446 34446 0 0 0-32-20l-18-14c-2.6-5-6.6-8-12-9-5-5-10-10-15-14.5a8.5 8.5 0 0 1 5-3l7 6Z"/><path style="opacity:1" fill="#1f0305" d="M533.5 851.5c-.4 3.5-2 6.5-4.5 9a577.5 577.5 0 0 1-20.5 20 4 4 0 0 1 0-5c9.2-7.2 17.6-15.2 25-24Z"/><path style="opacity:1" fill="#291410" d="M475.5 845.5c1.8 1.2 3.8 1.9 6 2a72 72 0 0 1 9 11c.6 2.4 1.6 4.5 3 6.5-.4 1-1 1.5-2 1.5 2.5 5 6 9.4 10.5 13 .5 1.3.7 2.6.5 4-4.6.6-7.5-1.4-8.5-6a11 11 0 0 0-5.5-4 4.9 4.9 0 0 0-1 4c-1.3-.8-2.3-2-3-3.5a8.4 8.4 0 0 0-4-.5c-.9-2.2-2.2-4.2-4-6 1.3.2 2.3-.1 3-1 1.7 1.3 3 3 4 5a3 3 0 0 0 3 1c.4-3.4-.6-6.2-3-8.5a5 5 0 0 0-3-.5c-1.6-3.4-4-6-7.5-8l-1.5 1c2 2 3.7 4.4 5 7-1.3.2-2.5-.2-3.5-1-1.9-5-4.4-9.7-7.5-14 .8-1 1.8-1.6 3-2 2.5 3 5.1 5.8 8 8.5 1.3.7 2.7.7 4 0-2.4-2.9-4-6-5-9.5Z"/><path style="opacity:1" fill="#460c0d" d="M479.5 866.5c-.3-1.6-1.3-2.6-3-3-1.3-2.6-3-5-5-7l1.5-1c3.4 2 6 4.6 7.5 8 1-.1 2 0 3 .5a9.5 9.5 0 0 1 3 8.5 3 3 0 0 1-3-1 15 15 0 0 0-4-5Z"/><path style="opacity:1" fill="#540405" d="M690.5 891.5c-7.9-13.7-16-27.4-24.5-41-2.8-2.2-5-5-6.5-8-.3-2.4 0-4.8 1-7a42.2 42.2 0 0 1 11 18c3 1.8 5.4 4.1 7.5 7 2.7 4 4.8 8.4 6.5 13a32.4 32.4 0 0 1 9 19 7 7 0 0 1-4-1Z"/><path style="opacity:1" fill="#200207" d="M476.5 867.5c1.8 1.8 3.1 3.8 4 6a52.3 52.3 0 0 0-3.5 10c-3 3.4-6.5 6.3-10.5 8.5-5.6 1-10.1-.7-13.5-5.5-3.8-8.2-3.3-16 1.5-23.5 8.6-4.3 16-2.8 22 4.5Z"/><path style="opacity:1" fill="#751d14" d="M470.5 868.5c-3.5-1.6-7.2-2-11-1.5a7 7 0 0 0-2 2.5l-2 2c1.2-6 5-8.1 11-6.5 1.6 1 3 2.1 4 3.5Z"/><path style="opacity:1" fill="#cf9c71" d="M457.5 869.5v13c-1.7-3.3-2.4-7-2-11l2-2Z"/><path style="opacity:1" fill="#f4e8a5" d="M470.5 868.5c6 11.9 2.3 17.7-11 17.5-.6-1.3-1.3-2.5-2-3.5v-13a7 7 0 0 1 2-2.5c3.8-.6 7.5 0 11 1.5Z"/><path style="opacity:1" fill="#a5ac68" d="M463.5 869.5c4 .4 6 2.7 6 7-3.7 8-7 7.7-10-1 1-2.3 2.3-4.3 4-6Z"/><path style="opacity:1" fill="#490d12" d="M470.5 868.5c2 0 3 1 3.5 3 3.1 12.4-1.7 18.3-14.5 17.5a23.2 23.2 0 0 0-4.5-6.5c-.8-3.9-.6-7.5.5-11-.4 4 .3 7.7 2 11 .7 1 1.4 2.2 2 3.5 13.3.2 17-5.6 11-17.5Z"/><path style="opacity:1" fill="#1b0206" d="M515.5 895.5a29.8 29.8 0 0 0-1 23c1.2.7 2.6 1 4 1a7.6 7.6 0 0 0 6 4c.1.6.4 1.1 1 1.5 2.7.8 5.4.7 8-.5 5.5-4.4 8-10.1 7.5-17-2.3-4-4.8-7.8-7.5-11.5-4.3-3.3-9-4.2-14-2.5.1-.6.4-1.1 1-1.5 7.5-2 13.6-.2 18.5 5.5 4.1 5 5.5 10.6 4 17-2 4.7-4.9 8.9-8.5 12.5-21.5 1-28.7-8.7-21.5-29.5a7 7 0 0 1 2.5-2Z"/><path style="opacity:1" fill="#520a10" d="M524.5 923.5c2.4.2 4.7 0 7-.5 9-8 9.3-16.3 1-25-6.8-2.4-12.1-.6-16 5.5-2.6 4-2.6 8 0 12a7 7 0 0 1 2 4c-1.4 0-2.8-.3-4-1a29.8 29.8 0 0 1 1-23 7 7 0 0 1 4-2c5-1.7 9.7-.8 14 2.5 2.7 3.7 5.2 7.5 7.5 11.5.5 6.9-2 12.6-7.5 17a11.2 11.2 0 0 1-8 .5c-.6-.4-.9-.9-1-1.5Z"/><path style="opacity:1" fill="#440605" d="M345.5 779.5a8.5 8.5 0 0 0 6.5 5c2 5.1 1.8 10.1-.5 15a371.7 371.7 0 0 0-16.5 16 453.6 453.6 0 0 0-28 44c-4.7 4.3-8 9.3-10 15a80 80 0 0 0-11 19c-5 9.4-10.4 18.8-16 28-.5 2.4-1.2 4.7-2 7-3.6 4.9-7 9.9-10 15-2.3 5-3.5 10.4-3.5 16h-11a13 13 0 0 1 .5-5l41-81a448.8 448.8 0 0 1 61-78 51 51 0 0 0-.5-16Z"/><path style="opacity:1" fill="#5c0600" d="M498.5 929.5v30h-7a385 385 0 0 1 2.5-50c1.9-5.2 3.2-4.9 4 1 .5 6.3.7 12.7.5 19Z"/><path style="opacity:1" fill="#d38c84" d="M516.5 903.5v12c-2.6-4-2.6-8 0-12Z"/><path style="opacity:1" fill="#080507" d="M644.5 895.5c13.4-.8 17 4.7 11 16.5-12 5.3-17 1.5-15.5-11.5a11 11 0 0 1 4.5-5Z"/><path style="opacity:1" fill="#6e1b18" d="M647.5 897.5c8.4 1.5 10 5.6 5 12.5a61 61 0 0 1-11 .5c-1-5.8 1-10.1 6-13Z"/><path style="opacity:1" fill="#fef2cf" d="M645.5 900.5c6.6-1.8 9.1.6 7.5 7-8 3.9-10.5 1.5-7.5-7Z"/><path style="opacity:1" fill="#150303" d="M591.5 867.5c26.6 3.1 34.4 16.8 23.5 41a33 33 0 0 1-24.5 10.5 63 63 0 0 1-14.5-8.5c-7.9-15-5.7-28.1 6.5-39.5 3-1.6 6-2.8 9-3.5Z"/><path style="opacity:1" fill="#713935" d="M614.5 887.5a19 19 0 0 1-6 21.5c-3 2.4-6.4 3.9-10 4.5 2.7-2.1 5.7-4 9-5.5 6-5.5 8.3-12.4 7-20.5Z"/><path style="opacity:1" fill="#eed6ba" d="M593.5 874.5c2.3.6 4.3 1.7 6 3.5-2.1.1-4.3 0-6.5-.5-2.1-.1-4 .6-5.5 2a29.7 29.7 0 0 0-6 15c.6 2.6 1.6 4.9 3 7a6.9 6.9 0 0 0 3 4.5c3.4.3 6.7.8 10 1.5 4.3-2 7.6-5 10-9 3.5-3.8 4-8.1 1.5-13-3.2-2.2-6-4.7-8.5-7.5 2-.5 4-.3 6 .5l7 6c.6.9 1 1.9 1 3 1.3 8.1-1 15-7 20.5a51.7 51.7 0 0 0-9 5.5c-9.2.8-15.9-2.8-20-11-3.7-11.5-.7-20.7 9-27.5 2-.5 4-.7 6-.5Z"/><path style="opacity:1" fill="#98ae54" d="M584.5 901.5v-6c1.8-1.4 2.5-3.4 2-6 2.4-.9 4.7-2 7-3.5 5.9-.5 9.5 2.2 11 8a24.6 24.6 0 0 0-2.5 8.5c-6.2 4.2-12 3.9-17.5-1Z"/><path style="opacity:1" fill="#b2bc7d" d="M607.5 898.5c-2.4 4-5.7 7-10 9-3.3-.7-6.6-1.2-10-1.5a6.9 6.9 0 0 1-3-4.5c5.5 4.9 11.3 5.2 17.5 1 .3-3 1.2-5.9 2.5-8.5-1.5-5.8-5.1-8.5-11-8a35.6 35.6 0 0 1-7 3.5c.5 2.6-.2 4.6-2 6v-8c3.1-.1 5.8-1.3 8-3.5 11.7-1.9 16.7 3 15 14.5Z"/><path style="opacity:1" fill="#c5bf95" d="M593.5 874.5c4 .5 8 1.3 12 2.5.6.4.9.9 1 1.5-2-.8-4-1-6-.5 2.5 2.8 5.3 5.3 8.5 7.5 2.5 4.9 2 9.2-1.5 13 1.7-11.5-3.3-16.4-15-14.5a11.4 11.4 0 0 1-8 3.5v14a21.2 21.2 0 0 1-3-7c.6-5.6 2.6-10.6 6-15a7.2 7.2 0 0 1 5.5-2c2.2.5 4.4.6 6.5.5-1.7-1.8-3.7-3-6-3.5Z"/><path style="opacity:1" fill="#6b201e" d="m613.5 884.5-7-6c-.1-.6-.4-1.1-1-1.5-4-1.2-8-2-12-2.5-2-.2-4 0-6 .5-9.7 6.8-12.7 16-9 27.5-.6-.1-1.1-.4-1.5-1-3.9-21.4 5-31 26.5-28.5 2.6 1.4 5.3 2.6 8 3.5a23 23 0 0 0 2 8Z"/><path style="opacity:1" fill="#f6e1b0" d="M524.5 923.5a7.6 7.6 0 0 1-6-4 7 7 0 0 0-2-4v-12c3.9-6.1 9.2-8 16-5.5 8.3 8.7 8 17-1 25a25 25 0 0 1-7 .5Z"/><path style="opacity:1" fill="#8cb066" d="M525.5 900.5c8.8 4 10.3 10 4.5 18a4.5 4.5 0 0 1-5.5 0c-5.2-6.2-4.9-12.2 1-18Z"/><path style="opacity:1" fill="#520102" d="M542.5 954.5c1 1.4 1.3 3 1 5h-5c-.1-1.7-.5-3.4-1-5l-11-3c-3.7-.3-6 1.4-7 5l-2 1c.6-2.8 2-5.3 4-7.5 3-.7 6-.7 9 0 4.1 1.2 8.1 2.7 12 4.5Z"/><path style="opacity:1" fill="#240605" d="M542.5 954.5a83.2 83.2 0 0 0-12-4.5c-3-.7-6-.7-9 0-2 2.2-3.4 4.7-4 7.5v2h-5c-.1-2.2.4-4.2 1.5-6 8.2-5.7 17-6.6 26.5-2.5 1.3.8 2 2 2 3.5Z"/><path style="opacity:1" fill="#901110" d="M537.5 954.5c-6.2-.5-12.2.1-18 2 1-3.6 3.3-5.3 7-5l11 3Z"/><path style="opacity:1" fill="#e3cc9e" d="M537.5 954.5c.5 1.6.9 3.3 1 5h-21v-2l2-1a45.8 45.8 0 0 1 18-2Z"/></svg>